<svg width="319" height="64" viewBox="0 0 319 64" fill="none" xmlns="http://www.w3.org/2000/svg">
<path d="M117.14 49.5162C113.292 53.7487 108.29 57.7246 105.982 58.8789C101.749 60.931 98.0297 57.7246 112.394 42.4621C117.909 36.8189 110.342 34.6385 108.418 37.0754C106.623 39.384 101.493 47.5924 99.3123 51.9531C97.645 55.0312 95.3364 57.4681 90.0779 59.5202C83.1521 61.7005 72.3786 58.1094 80.0739 46.3098C83.6651 41.3078 90.9757 38.4862 94.0538 40.9231C95.9777 42.4621 95.9776 45.7968 99.4406 43.4882C100.338 42.7186 104.058 38.871 102.262 35.1515C102.006 34.6385 100.21 33.2277 95.8494 33.9972C83.7933 37.3319 69.6852 53.7487 73.1481 61.1875C76.7393 66.5742 90.8474 63.2396 98.2863 56.0573C97.132 65.0352 102.903 63.3678 106.11 61.3158C111.753 57.2116 115.986 52.4661 117.012 51.3118C117.012 51.3118 117.909 48.7467 117.14 49.5162Z" fill="white"/>
<path d="M246.55 56.4424C245.139 51.6969 263.992 43.1038 259.503 34.3824C258.862 33.2281 256.682 33.4846 255.399 34.3824C253.091 36.178 250.012 40.7952 247.447 42.9755C244.882 45.0276 235.007 50.2861 234.237 48.8753C234.493 44.6429 242.83 36.4345 240.393 33.6129C239.495 32.9716 237.315 33.3563 236.289 33.9976C230.518 37.3323 222.822 46.1819 220.129 49.3883C206.021 63.24 198.454 58.3663 198.71 53.6208C209.997 48.234 223.207 40.5387 220.001 33.8694C219.359 32.5868 215.64 31.8173 213.331 32.5868C204.097 35.1519 197.684 47.5928 195.504 53.4925C195.504 53.6208 183.191 60.6749 181.267 56.3142C180.369 50.9274 196.53 46.0537 192.554 37.0758C191.656 36.0497 190.63 36.178 189.732 36.3062C186.397 36.9475 183.063 38.2301 178.959 40.7952C175.239 43.2321 174.47 44.2581 174.598 43.8733C174.854 43.2321 179.343 38.3583 176.778 36.0497C176.265 35.2802 174.726 35.1519 173.7 35.4084C167.416 36.5627 161.259 41.8212 158.822 43.2321C158.822 42.0777 162.927 38.3583 161.388 35.1519C160.746 34.3824 159.079 34.5107 157.283 35.1519C151.127 38.4866 146.125 46.1819 142.149 50.0296C138.943 53.236 134.069 56.3142 130.863 57.3402C124.45 59.1358 113.292 58.1097 120.474 45.7972C123.424 41.18 129.324 37.9736 132.402 40.4104C134.326 41.9495 134.326 45.5407 138.045 42.719C138.943 41.9495 142.534 37.8453 140.482 34.6389C140.225 34.1259 138.43 32.7151 134.069 33.4846C122.013 36.8193 111.753 55.6729 115.215 61.0596C118.678 66.0616 132.658 61.9574 142.79 50.9274C145.356 48.7471 151.64 41.3082 152.41 41.693C154.975 42.9755 139.841 60.9314 145.227 63.24C148.819 62.8552 156.257 42.9755 166.133 40.4104C172.289 40.6669 155.103 62.5987 161.131 62.8552C164.081 63.753 173.572 41.5647 182.678 41.3082C187.167 41.8212 170.879 60.9314 176.907 63.24C181.011 64.5225 189.86 59.5206 194.862 55.8011C194.221 57.9815 194.093 59.1358 194.734 60.5466C196.786 65.9333 209.612 64.6508 221.54 49.6448C224.618 46.1819 229.876 40.5387 231.159 41.3082C233.211 42.4625 216.794 62.7269 222.95 63.1117C224.618 63.1117 229.876 55.5446 231.287 54.1338C234.109 50.5426 242.574 47.9775 245.78 46.4385C249.499 45.7972 237.572 60.2901 243.087 62.4704C250.269 63.753 261.684 51.1839 263.479 47.5928C261.427 48.4905 251.038 59.6488 246.55 56.4424ZM201.788 43.3603C205.251 38.2301 209.74 36.8193 212.177 39.7691C214.229 43.7451 209.355 46.9515 198.71 52.4665C199.095 50.4144 200.377 45.5407 201.788 43.3603Z" fill="white"/>
<path d="M60.5791 57.7247C58.7835 54.5183 74.8155 44.5144 74.559 35.4082C74.4308 31.304 66.2224 33.7409 63.7855 35.9212C61.3487 37.9733 56.0902 53.6205 44.5471 59.5203C41.469 60.8029 38.5191 59.2638 40.6995 54.3901C40.0582 54.6466 38.1343 55.4161 37.7496 55.5444C31.2085 57.7247 18.7677 60.0333 11.5854 54.5183C6.96815 51.1837 6.45513 43.7448 8.50722 38.3581C16.9721 16.9393 31.9781 6.55061 47.497 9.62875C54.8076 11.0396 56.988 11.9374 55.8337 14.246C54.8076 16.4263 51.6012 15.272 48.9078 15.1438C46.5992 15.0155 44.9319 15.5285 44.5471 17.4524C44.1624 19.761 44.4189 21.5565 44.5471 22.4543C44.6754 23.3521 45.5732 26.5585 49.4209 24.1217C53.525 21.1718 56.2184 15.5285 56.6032 14.8872C57.2445 13.3482 57.6292 11.8091 57.7575 10.1418C57.8857 7.83317 57.2445 5.65282 56.0902 3.98549C54.8076 2.06165 52.7555 0.907349 49.6774 0.907349C42.3668 1.0356 29.926 6.55061 20.5633 16.1698C12.7397 24.1217 -0.855457 43.4883 0.0423341 54.7748C0.555358 60.6746 4.40304 62.8549 12.9962 63.7527C17.9982 64.2658 28.3869 62.0854 35.6975 58.366C34.4149 60.6746 35.3127 62.855 38.1343 62.9832C54.5511 62.9832 62.8877 36.9473 64.4268 37.5885C66.4789 38.4863 58.6553 52.9792 57.7575 55.2879C55.4489 61.3159 56.3467 62.855 60.8356 61.9572C65.4529 61.0594 74.3025 54.3901 75.4568 50.6706C72.3787 53.6205 63.4008 61.0594 60.5791 57.7247Z" fill="white"/>
<path d="M234.88 26.6869C235.521 26.6869 235.265 26.6869 202.688 26.5587C201.148 26.5587 194.223 26.3021 191.273 21.8132C189.477 19.1198 189.605 15.4004 191.658 10.7832C194.479 4.37038 199.738 0.137939 204.868 0.137939C208.972 0.137939 213.846 2.06178 213.205 10.0136C212.563 17.4525 218.463 23.6088 218.463 23.6088C225.645 21.9414 222.695 12.8353 235.136 3.98562C239.754 0.779219 246.166 0.650963 248.475 6.67899C250.655 12.5788 248.347 18.9916 246.166 22.198C243.216 26.0456 237.83 26.6869 234.88 26.6869ZM230.647 25.4044C236.162 25.2761 238.727 24.6348 240.908 21.9414C242.703 19.7611 242.703 17.8373 242.19 13.8613C241.293 7.83329 231.032 3.34434 229.621 13.4766C229.108 17.3242 228.98 21.3002 222.824 23.737C222.952 23.737 221.541 25.5326 230.647 25.4044ZM198.712 17.5807C202.816 27.4564 215.385 24.25 215.385 24.25C215.385 24.25 205.253 23.9935 209.742 9.37236C214.359 -5.63358 194.223 6.67899 198.712 17.5807Z" fill="white"/>
<path d="M219.359 25.2761C199.223 48.3622 178.189 9.88543 169.468 24.8914C165.62 31.4324 157.283 27.9695 156.386 26.8152C155.873 26.1739 156.514 23.4806 152.538 19.6329C149.973 17.196 160.746 22.711 163.953 18.4786C165.877 15.9135 169.34 10.5267 175.881 12.8353C179.857 14.2461 184.089 18.9916 185.5 20.4024C204.482 39.1278 212.049 27.2 213.588 25.9174C215.127 24.6349 219.359 25.2761 219.359 25.2761Z" fill="white"/>
<path d="M310.039 8.08973C295.802 -7.94226 266.432 15.5286 252.837 23.3522C232.187 35.0235 224.235 29.5085 222.312 25.0195C221.799 23.9935 216.54 23.4804 217.694 27.0716C222.568 42.5906 249.245 27.0716 255.273 24.763C261.045 22.4544 273.229 16.2981 283.361 13.8612C292.724 11.5526 300.676 12.5787 305.55 16.9394C311.065 21.9414 311.706 30.0215 311.449 33.6127C311.193 38.1016 311.834 44.7709 302.472 54.1336C298.239 57.9813 295.674 58.8791 293.109 59.3921C288.107 60.4181 284.387 55.1597 298.239 42.0776C304.011 36.6908 296.187 34.2539 294.263 36.6908C292.468 38.9994 287.337 47.2078 285.157 51.5685C283.49 54.6466 281.181 57.0835 275.923 59.1356C268.997 61.3159 258.223 57.7248 265.919 45.9252C269.51 40.9232 276.82 38.1016 279.899 40.5385C281.822 42.0776 281.822 45.4122 285.285 43.1036C286.183 42.3341 289.902 38.4864 288.107 34.767C287.85 34.2539 286.055 32.8431 281.694 33.6127C269.638 36.9473 255.53 53.3641 258.993 60.8029C262.584 66.1897 276.692 62.855 284.131 55.6727C283.49 66.5744 293.622 62.0855 297.085 60.6747C306.961 55.6727 331.586 32.3301 310.039 8.08973Z" fill="white"/>
</svg>
