<svg width="50" height="50" viewBox="0 0 50 50" fill="none" xmlns="http://www.w3.org/2000/svg">
<path d="M25.1679 49.832C38.8855 49.832 49.9999 38.7176 49.9999 25C49.9999 11.2824 38.8855 0.167969 25.1679 0.167969C11.4503 0.167969 0.335938 11.2824 0.335938 25C0.335938 38.7176 11.4503 49.832 25.1679 49.832ZM11.6986 24.4619L35.6408 15.2306C36.7521 14.8292 37.7226 15.5017 37.3625 17.182L37.3646 17.18L33.288 36.3854C32.9859 37.7471 32.1768 38.0782 31.0448 37.4367L24.8368 32.8614L21.8425 35.746C21.5114 36.0771 21.2321 36.3565 20.5906 36.3565L21.0313 30.0388L32.5368 19.6445C33.0376 19.2038 32.4251 18.9554 31.765 19.3941L17.5466 28.3461L11.4172 26.434C10.0866 26.0119 10.0577 25.1034 11.6986 24.4619Z" fill="#43B4F3"/>
</svg>
