<svg width="52" height="50" viewBox="0 0 52 50" fill="none" xmlns="http://www.w3.org/2000/svg">
<path fill-rule="evenodd" clip-rule="evenodd" d="M51.2414 25C51.2414 38.7143 39.8585 49.832 25.817 49.832C11.7755 49.832 0.392578 38.7143 0.392578 25C0.392578 11.2856 11.7755 0.167969 25.817 0.167969C39.8585 0.167969 51.2414 11.2856 51.2414 25ZM39.2594 17.5878L39.2677 17.6206C40.1074 21.3667 40.1074 25.1654 39.2676 28.9113L39.2593 28.9441C38.58 31.6263 35.5173 34.5046 32.7047 35.1034L32.6731 35.1098C30.399 35.5335 28.108 35.7451 25.8181 35.7451C25.1443 35.7451 24.4702 35.7245 23.7965 35.6877L20.6904 38.8411C19.9215 39.6232 18.5694 39.091 18.5694 38.0072V35.013C15.8618 34.2579 13.0272 31.5118 12.3759 28.944L12.3684 28.9112C11.5286 25.1654 11.5286 21.3665 12.3684 17.6206L12.3759 17.5878C13.0561 14.9057 16.1189 12.0273 18.9305 11.4285L18.9632 11.4221C23.5113 10.5745 28.124 10.5745 32.6732 11.4221L32.7048 11.4285C35.5174 12.0273 38.5801 14.9055 39.2594 17.5878ZM32.183 32.6956C34.0307 32.2936 36.356 30.1181 36.8096 28.3681C37.5664 24.9822 37.5664 21.5498 36.8097 18.1638C36.3561 16.4138 34.0317 14.2383 32.1831 13.8364C27.9596 13.0516 23.6764 13.0516 19.452 13.8364C17.6043 14.2383 15.2798 16.4138 14.8254 18.1638C14.0695 21.5497 14.0695 24.9821 14.8254 28.368C15.2798 30.118 17.6043 32.2935 19.452 32.6955L19.4534 32.6958C19.5358 32.7117 19.5957 32.7812 19.5957 32.8632V37.8234C19.5957 38.0712 19.9055 38.1935 20.0819 38.0139L22.4941 35.5959C22.4941 35.5959 24.4162 33.6685 24.7619 33.322C24.7956 33.2881 24.8421 33.2696 24.8906 33.271C27.3262 33.3368 29.7643 33.1449 32.183 32.6956ZM29.5637 30.5825L29.5637 30.5825C29.378 30.5325 29.1992 30.4844 29.0292 30.4156C26.4241 29.36 24.0266 27.9981 22.1276 25.9106C21.0477 24.7235 20.2024 23.3832 19.488 21.9649C19.184 21.3616 18.923 20.7371 18.6623 20.1136L18.5725 19.8989C18.3071 19.2657 18.698 18.6115 19.1096 18.1343C19.4958 17.6864 19.9929 17.3438 20.5312 17.0911C20.9513 16.894 21.3656 17.0077 21.6725 17.3555C22.3357 18.1074 22.9451 18.8978 23.4383 19.7694C23.7417 20.3055 23.6585 20.9608 23.1086 21.3257C23.0015 21.3967 22.902 21.4777 22.8027 21.5586L22.8026 21.5586L22.8026 21.5587C22.778 21.5787 22.7534 21.5987 22.7287 21.6186C22.6194 21.7064 22.5168 21.795 22.4419 21.9139C22.3051 22.1312 22.2986 22.3878 22.3866 22.6242C23.0646 24.444 24.2074 25.8593 26.0829 26.6216L26.1631 26.6545C26.437 26.7673 26.7151 26.8819 27.0302 26.8461C27.4048 26.8034 27.6155 26.5286 27.8275 26.2521C27.9432 26.1013 28.0592 25.95 28.2025 25.8356C28.5991 25.5189 29.1059 25.5147 29.5331 25.7787C29.9604 26.043 30.3746 26.3264 30.7863 26.613L30.8712 26.672L30.8712 26.672C31.2467 26.9331 31.619 27.1918 31.9656 27.4901C32.3241 27.7985 32.4476 28.203 32.2457 28.6213C31.8762 29.3877 31.3384 30.0251 30.5629 30.4321C30.4132 30.5105 30.2437 30.5526 30.0725 30.5952C29.9932 30.6149 29.9136 30.6347 29.8354 30.6582C29.7434 30.6309 29.6527 30.6065 29.5637 30.5825ZM32.6321 21.8062C32.0323 18.5159 29.2336 16.3073 25.8262 16.214C25.813 16.214 25.7998 16.2138 25.7865 16.2136C25.7804 16.2136 25.7743 16.2135 25.7682 16.2134C25.7216 16.2127 25.675 16.2119 25.6288 16.2146C25.3871 16.2273 25.173 16.4246 25.2182 16.6724C25.2692 16.9518 25.5565 16.98 25.7934 17.0033L25.8344 17.0074C25.9542 17.0197 26.0744 17.0298 26.1946 17.04L26.1948 17.04L26.1948 17.04L26.1949 17.04C26.4609 17.0624 26.7269 17.0849 26.9888 17.1305C29.5153 17.5706 31.5394 19.6216 31.892 22.1009C31.9453 22.4754 31.9716 22.8539 31.9978 23.2321L31.9979 23.2322L31.9979 23.2322L31.9979 23.2326C32.0045 23.3284 32.0112 23.4241 32.0182 23.5197C32.0361 23.7588 32.159 23.9821 32.4321 23.9789C32.6965 23.9757 32.8353 23.7483 32.8161 23.509L32.7995 23.2974C32.7606 22.7981 32.7216 22.2974 32.6321 21.8062ZM31.0033 22.7709C31.0019 22.7815 31.0006 22.7957 30.9991 22.8126C30.9947 22.8619 30.9884 22.9336 30.9697 23.0021C30.8794 23.3362 30.3605 23.378 30.2413 23.0409C30.2058 22.9409 30.2005 22.827 30.2003 22.7194C30.1992 22.0146 30.0423 21.3104 29.6784 20.697C29.3042 20.0666 28.7326 19.5369 28.0623 19.2161C27.6569 19.0223 27.2186 18.9017 26.7743 18.8301C26.6538 18.8105 26.5324 18.7959 26.411 18.7812L26.411 18.7812C26.3369 18.7722 26.2627 18.7632 26.1888 18.7531C25.9523 18.721 25.826 18.5739 25.8373 18.3463C25.8477 18.1331 26.0073 17.9796 26.2453 17.9929C27.0272 18.0361 27.7825 18.2014 28.4778 18.5609C29.8915 19.2922 30.6991 20.4463 30.9349 21.9875C30.9387 22.0126 30.9433 22.0376 30.948 22.0626C30.9563 22.1072 30.9645 22.1517 30.968 22.1965C30.9776 22.3203 30.9846 22.4442 30.9928 22.5883L30.9928 22.5886L31.0033 22.7709ZM28.4175 22.2862C28.447 22.5413 28.5996 22.6956 28.8846 22.6905C29.0143 22.682 29.1474 22.594 29.1893 22.4187C29.213 22.3187 29.2031 22.2088 29.1936 22.1042L29.1929 22.0956C29.0581 20.5766 28.1139 19.9095 26.7928 19.8164C26.5814 19.8014 26.3933 19.9488 26.3609 20.1378C26.3253 20.3453 26.4506 20.5245 26.6771 20.5787C26.7747 20.6021 26.8742 20.6109 26.9739 20.6198C27.0872 20.6298 27.2007 20.6399 27.312 20.6714C27.4765 20.7179 27.6337 20.7898 27.7724 20.8885C28.0662 21.0975 28.2518 21.4135 28.3374 21.7547C28.375 21.9046 28.3923 22.0599 28.4095 22.2144C28.4121 22.2383 28.4148 22.2623 28.4175 22.2862Z" fill="#34CA00"/>
</svg>
