<svg width="50" height="50" viewBox="0 0 50 50" fill="none" xmlns="http://www.w3.org/2000/svg">
<path d="M24.832 0.167969C11.1198 0.167969 0 11.2877 0 25C0 38.7122 11.1198 49.832 24.832 49.832C38.5442 49.832 49.664 38.7122 49.664 25C49.664 11.2877 38.5442 0.167969 24.832 0.167969ZM25.3583 39.4579C25.3579 39.4579 25.3587 39.4579 25.3583 39.4579H25.3522C22.8647 39.4568 20.4204 38.8331 18.2496 37.6494L10.371 39.7156L12.4797 32.0162C11.1789 29.7632 10.4946 27.2071 10.4957 24.5885C10.4991 16.3965 17.1663 9.73194 25.3583 9.73194C29.3338 9.73346 33.0656 11.2809 35.8714 14.089C38.6776 16.8974 40.222 20.6304 40.2205 24.6002C40.2171 32.7926 33.5491 39.4579 25.3583 39.4579Z" fill="#6F3FAA"/>
<path d="M25.3626 12.2412C18.5487 12.2412 13.0072 17.7804 13.0042 24.5894C13.0034 26.9227 13.6566 29.195 14.893 31.1611L15.1867 31.6283L13.9385 36.1854L18.6139 34.9593L19.0651 35.2268C20.9616 36.3522 23.1357 36.9474 25.3523 36.9482H25.3573C32.1658 36.9482 37.7073 31.4086 37.7104 24.5992C37.7115 21.2993 36.4278 18.1969 34.0956 15.8628C31.7634 13.5287 28.6617 12.2423 25.3626 12.2412ZM32.6285 29.8986C32.3189 30.7656 30.8355 31.5571 30.122 31.6639C29.482 31.7594 28.6727 31.7992 27.783 31.5169C27.2435 31.3457 26.5519 31.1172 25.6657 30.7349C21.9407 29.1268 19.5077 25.3771 19.322 25.1293C19.1364 24.8815 17.8057 23.1162 17.8057 21.2887C17.8057 19.4616 18.765 18.5633 19.1053 18.1919C19.4459 17.8202 19.8483 17.7274 20.0958 17.7274C20.3432 17.7274 20.591 17.7297 20.8073 17.7403C21.0354 17.7516 21.3416 17.6535 21.6428 18.3776C21.9524 19.121 22.6951 20.9481 22.7879 21.1338C22.8807 21.3198 22.9425 21.5365 22.819 21.7843C22.6951 22.0321 22.2836 22.5668 21.8906 23.0541C21.7258 23.2583 21.511 23.4402 21.7277 23.8119C21.9441 24.1832 22.6898 25.3991 23.7935 26.3835C25.2121 27.6483 26.4087 28.0401 26.78 28.2261C27.151 28.4118 27.3677 28.3807 27.5845 28.1333C27.8008 27.8855 28.5128 27.0492 28.7602 26.6775C29.0076 26.3058 29.2554 26.368 29.5957 26.4919C29.9363 26.6154 31.7619 27.5138 32.1332 27.6994C32.5046 27.8855 32.752 27.9783 32.8448 28.1333C32.938 28.2883 32.938 29.0313 32.6285 29.8986Z" fill="#6F3FAA"/>
</svg>
