<svg width="23" height="20" viewBox="0 0 23 20" fill="none" xmlns="http://www.w3.org/2000/svg">
<path d="M22.6324 9.14279L14.3263 0.836487C14.0892 0.599384 13.7731 0.469238 13.4362 0.469238C13.0989 0.469238 12.783 0.59957 12.5459 0.836487L11.7918 1.59081C11.5549 1.82754 11.4244 2.14374 11.4244 2.48088C11.4244 2.81784 11.5549 3.1447 11.7918 3.38143L16.6375 8.23775H1.24255C0.548443 8.23775 0 8.78115 0 9.47544V10.5418C0 11.2361 0.548443 11.8343 1.24255 11.8343H16.6924L11.792 16.7178C11.5551 16.9549 11.4245 17.2625 11.4245 17.5996C11.4245 17.9364 11.5551 18.2485 11.792 18.4854L12.5461 19.2373C12.7832 19.4744 13.099 19.6036 13.4364 19.6036C13.7733 19.6036 14.0893 19.4727 14.3265 19.2356L22.6326 10.9295C22.8702 10.6916 23.0009 10.3741 23 10.0366C23.0007 9.69796 22.8702 9.38026 22.6324 9.14279Z" fill="#0C96FC"/>
</svg>
