<svg width="23" height="20" viewBox="0 0 23 20" fill="none" xmlns="http://www.w3.org/2000/svg">
<path d="M0.367625 10.7957L8.67374 19.102C8.91084 19.3391 9.22685 19.4692 9.56381 19.4692C9.90114 19.4692 10.217 19.3389 10.4541 19.102L11.2082 18.3477C11.4451 18.1109 11.5756 17.7947 11.5756 17.4576C11.5756 17.1206 11.4451 16.7938 11.2082 16.5571L6.36254 11.7007L21.7574 11.7007C22.4516 11.7007 23 11.1573 23 10.463L23 9.39663C23 8.70234 22.4516 8.10415 21.7574 8.10415L6.30756 8.10416L11.208 3.22072C11.4449 2.98361 11.5755 2.67601 11.5755 2.33887C11.5755 2.0021 11.4449 1.69001 11.208 1.4531L10.4539 0.701209C10.2168 0.464105 9.90095 0.334895 9.56362 0.334895C9.22666 0.334895 8.91065 0.465787 8.67355 0.702892L0.367438 9.009C0.129773 9.24685 -0.000931652 9.56436 2.97829e-06 9.90188C-0.000744673 10.2405 0.129773 10.5582 0.367625 10.7957Z" fill="#0C96FC"/>
</svg>
