<svg width="37" height="37" viewBox="0 0 37 37" fill="none" xmlns="http://www.w3.org/2000/svg">
<path d="M30.7295 8.00026C30.9944 7.91195 31.171 7.73535 31.2593 7.64704C32.1423 6.94062 32.7604 5.96929 32.937 4.82135C33.1136 3.76171 32.8487 2.61377 32.1423 1.73074C31.4359 0.847709 30.4646 0.229588 29.3166 0.0529818C28.257 -0.123624 27.109 0.141285 26.1377 0.847709C25.1664 1.55413 23.4003 4.11492 21.9875 6.4108C21.1044 5.35116 19.7799 4.73304 18.367 4.73304C16.9542 4.73304 15.6296 5.35116 14.7466 6.4108C13.3338 4.20323 11.4794 1.55413 10.5964 0.847709C9.71334 0.141285 8.5654 -0.123624 7.41746 0.0529818C6.35782 0.141285 5.38649 0.759406 4.68006 1.73074C3.97364 2.61377 3.70873 3.76171 3.88533 4.90965C4.06194 5.96929 4.68006 7.02892 5.56309 7.73535C5.6514 7.82365 5.828 7.91195 6.09291 8.00026H0V17.8019H2.11927V36.8754H34.7031V17.8019H36.8224V8.00026H30.7295ZM27.8155 3.05529C28.0804 2.87868 28.3453 2.79038 28.6985 2.79038C28.7868 2.79038 28.8751 2.79038 28.8751 2.79038C29.2283 2.87868 29.5815 3.05529 29.8464 3.4085C30.1113 3.76171 30.1996 4.11492 30.1113 4.46813C30.023 4.82135 29.8464 5.17456 29.4932 5.43947C29.14 5.70438 27.2856 6.4108 24.8132 7.11723C26.4026 4.73304 27.5506 3.32019 27.8155 3.05529ZM19.6916 8.00026H17.1308C17.8372 7.38213 18.9852 7.38213 19.6916 8.00026ZM6.97594 3.4085C7.24085 3.05529 7.50576 2.87868 7.94727 2.79038C8.03558 2.79038 8.12388 2.79038 8.12388 2.79038C8.47709 2.79038 8.742 2.87868 9.00691 3.05529C9.36012 3.32019 10.5081 4.90965 12.0092 7.02892C9.36012 6.2342 7.59406 5.61607 7.32915 5.35116C6.88764 5.17456 6.71103 4.82135 6.62273 4.46813C6.62273 4.11492 6.71103 3.67341 6.97594 3.4085ZM2.8257 10.826H10.5964V14.9762H2.8257V10.826ZM12.7156 34.0497H4.94497V17.8019H12.7156V34.0497ZM21.281 34.0497H15.5413V17.8019H21.281V34.0497ZM23.4003 14.9762H13.4221V10.826H23.4003V14.9762ZM31.8774 34.0497H24.0184V17.8019H31.8774V34.0497ZM33.9967 14.9762H26.1377V10.826H33.9967V14.9762Z" fill="#4B3C8F"/>
</svg>
