<svg width="42" height="37" viewBox="0 0 42 37" fill="none" xmlns="http://www.w3.org/2000/svg">
<path d="M41.3252 31.5095V29.0958H36.4175V14.6141H29.1767V0.132446H12.2813V14.6141H5.0405V29.0958H0.132812V31.5095H2.62688V33.9231H0.132812V36.3367H41.3252V33.9231H38.8311V31.5095H41.3252ZM17.1086 31.5095V33.9231H9.86773V31.5095H17.1086ZM19.5222 31.5095H21.9358V33.9231H19.5222V31.5095ZM24.3494 31.5095H31.5903V33.9231H24.3494V31.5095ZM34.0039 29.0958H21.9358V17.0278H24.3494V21.855H31.5903V17.0278H34.0039V29.0958ZM26.7631 17.0278H29.1767V19.4414H26.7631V17.0278ZM19.5222 2.54606H21.9358V4.95968H19.5222V2.54606ZM14.695 2.54606H17.1086V7.3733H24.3494V2.54606H26.7631V14.6141C26.2408 14.6141 15.2174 14.6141 14.695 14.6141V2.54606ZM12.2813 17.0278H14.695V19.4414H12.2813V17.0278ZM7.45412 17.0278H9.86773V21.855H17.1086V17.0278H19.5222V29.0958H7.45412V17.0278ZM5.0405 31.5095H7.45412V33.9231H5.0405V31.5095ZM36.4175 33.9231H34.0039V31.5095H36.4175V33.9231Z" fill="#4B3C8F"/>
<path fill-rule="evenodd" clip-rule="evenodd" d="M12.1485 0H29.3088V14.4817H36.5496V28.9634H41.4573V31.6419H38.9632V33.7906H41.4573V36.4692H0V33.7906H2.49407V31.6419H0V28.9634H4.90769V14.4817H12.1485V0ZM12.4134 0.264909V14.7466H5.1726V29.2283H0.264909V31.377H2.75898V34.0555H0.264909V36.2043H41.1924V34.0555H38.6983V31.377H41.1924V29.2283H36.2847V14.7466H29.0439V0.264909H12.4134ZM14.5622 2.41362H17.2407V7.24085H24.2166V2.41362H26.8951V14.7466H14.5622V2.41362ZM14.8271 2.67853V14.4817H26.6302V2.67853H24.4815V7.50576H16.9758V2.67853H14.8271ZM19.3894 2.41362H22.0679V5.09214H19.3894V2.41362ZM19.6543 2.67853V4.82723H21.803V2.67853H19.6543ZM7.3213 16.8953H9.99983V21.7225H16.9758V16.8953H19.6543V29.2283H7.3213V16.8953ZM7.58621 17.1602V28.9634H19.3894V17.1602H17.2407V21.9875H9.73492V17.1602H7.58621ZM12.1485 16.8953H14.8271V19.5738H12.1485V16.8953ZM12.4134 17.1602V19.3089H14.5622V17.1602H12.4134ZM21.803 16.8953H24.4815V21.7225H31.4575V16.8953H34.136V29.2283H21.803V16.8953ZM22.0679 17.1602V28.9634H33.8711V17.1602H31.7224V21.9875H24.2166V17.1602H22.0679ZM26.6302 16.8953H29.3088V19.5738H26.6302V16.8953ZM26.8951 17.1602V19.3089H29.0439V17.1602H26.8951ZM4.90769 31.377H7.58621V34.0555H4.90769V31.377ZM5.1726 31.6419V33.7906H7.3213V31.6419H5.1726ZM9.73492 31.377H17.2407V34.0555H9.73492V31.377ZM9.99983 31.6419V33.7906H16.9758V31.6419H9.99983ZM19.3894 31.377H22.0679V34.0555H19.3894V31.377ZM19.6543 31.6419V33.7906H21.803V31.6419H19.6543ZM24.2166 31.377H31.7224V34.0555H24.2166V31.377ZM24.4815 31.6419V33.7906H31.4575V31.6419H24.4815ZM33.8711 31.377H36.5496V34.0555H33.8711V31.377ZM34.136 31.6419V33.7906H36.2847V31.6419H34.136Z" fill="#4B3C8F"/>
</svg>
