<svg width="51" height="37" viewBox="0 0 51 37" fill="none" xmlns="http://www.w3.org/2000/svg">
<path d="M50.9426 13.9725H46.2089L42.2206 2.98492H30.3596V0H0V33.2193H10.9591C11.5752 34.9565 13.2341 36.2043 15.1798 36.2043C17.1255 36.2043 18.7844 34.9565 19.4005 33.2193H34.9379C35.554 34.9565 37.213 36.2043 39.1586 36.2043C41.1043 36.2043 42.7632 34.9565 43.3793 33.2193H50.9426V13.9725ZM15.1798 33.2193C14.3569 33.2193 13.6873 32.5498 13.6873 31.7269C13.6873 30.9039 14.3569 30.2344 15.1798 30.2344C16.0027 30.2344 16.6722 30.9039 16.6722 31.7269C16.6722 32.5498 16.0027 33.2193 15.1798 33.2193ZM27.3747 30.2344H19.4005C18.7844 28.4973 17.1255 27.2495 15.1798 27.2495C13.2341 27.2495 11.5752 28.4973 10.9591 30.2344H2.98492V2.98492H27.3747V30.2344ZM43.0334 13.9725H36.3294V5.96983H40.1287L43.0334 13.9725ZM39.1585 33.2193C38.3356 33.2193 37.6661 32.5498 37.6661 31.7269C37.6661 30.9039 38.3356 30.2344 39.1585 30.2344C39.9815 30.2344 40.651 30.9039 40.651 31.7269C40.651 32.5498 39.9816 33.2193 39.1585 33.2193ZM43.3792 30.2344C42.7631 28.4973 41.1042 27.2495 39.1585 27.2495C37.2128 27.2495 35.5539 28.4973 34.9378 30.2344H30.3596V5.96983H33.3445V16.9574H47.9577V19.8867H45.0613V22.8716H47.9577V30.2344H43.3792Z" fill="#4B3C8F"/>
</svg>
