<svg width="58" height="79" viewBox="0 0 58 79" fill="none" xmlns="http://www.w3.org/2000/svg">
<path d="M55.6539 37.7908C54.8794 37.7908 54.1956 37.8802 53.5858 38.0288V0H4.38185V38.0292C3.77196 37.8803 3.08834 37.791 2.31371 37.791H0V78.9745H57.9676V37.7908H55.6539ZM34.0996 18.6821V28.1094H23.8682V18.6821H34.0996ZM23.868 14.0547V4.62741H34.0994V14.0547H23.868ZM46.7748 41.4824C45.3857 41.4824 44.7904 40.9884 43.8042 40.17C42.7118 39.2634 41.2512 38.058 38.7268 37.8317V32.7368H48.9583V40.7934C48.3484 41.2318 47.7623 41.4824 46.7748 41.4824ZM23.868 32.7368H34.0994V38.6685C33.2133 39.1271 32.5307 39.6902 31.9527 40.17C30.9665 40.9884 30.3714 41.4824 28.9824 41.4824C27.5936 41.4824 26.9983 40.9884 26.0122 40.17C25.4349 39.6907 24.7531 39.1283 23.8682 38.6699V32.7368H23.868ZM48.9583 28.1094H38.7268V18.6821H48.9583V28.1094ZM19.2406 28.1094H9.00911V18.6821H19.2406V28.1094ZM19.2406 32.7368V37.8314C16.7147 38.0571 15.2535 39.263 14.1608 40.1698C13.1746 40.9882 12.5793 41.4823 11.1902 41.4823C10.2039 41.4823 9.61808 41.2324 9.00911 40.7951V32.7368H19.2406ZM5.26168 43.7261C6.47113 44.732 8.12759 46.1097 11.1905 46.1097C14.2497 46.1097 15.9064 44.7347 17.1162 43.7307C18.1024 42.9123 18.6977 42.4183 20.0868 42.4183C21.4757 42.4183 22.0711 42.9123 23.0572 43.7307C24.2669 44.7347 25.9237 46.1097 28.9827 46.1097C32.0418 46.1097 33.6985 44.7346 34.9084 43.7307C35.8947 42.9123 36.4898 42.4183 37.8788 42.4183C39.2678 42.4183 39.8632 42.9123 40.8494 43.7307C42.0592 44.7347 43.7161 46.1097 46.7751 46.1097C49.8375 46.1097 51.494 44.7323 52.7035 43.7266C52.9344 43.5345 53.1417 43.3623 53.3403 43.2105V50.7444C51.6896 51.2056 50.6029 52.104 49.7448 52.8174C48.7597 53.6368 48.1649 54.1312 46.7751 54.1312C45.386 54.1312 44.7907 53.6371 43.8045 52.8187C42.5947 51.8147 40.938 50.4397 37.8788 50.4397C34.8197 50.4397 33.163 51.8148 31.9531 52.8187C30.9668 53.6371 30.3717 54.1312 28.9827 54.1312C27.5939 54.1312 26.9986 53.6371 26.0125 52.8187C24.8028 51.8147 23.146 50.4397 20.087 50.4397C17.0278 50.4397 15.371 51.8147 14.1613 52.8187C13.175 53.6371 12.5798 54.1312 11.1906 54.1312C9.80055 54.1312 9.20608 53.6367 8.22091 52.8173C7.36329 52.1041 6.27739 51.2057 4.62772 50.7445V43.2117C4.82531 43.3633 5.03169 43.535 5.26168 43.7261ZM48.9583 14.0547H38.7268V4.62741H48.9583V14.0547ZM19.2406 4.62741V14.0547H9.00911V4.62741H19.2406ZM4.62741 74.3471V55.8618C4.82547 56.0131 5.03154 56.1839 5.26152 56.3752C6.47097 57.381 8.12743 58.7587 11.1903 58.7587C14.2495 58.7587 15.9063 57.3836 17.116 56.3798C18.1023 55.5613 18.6975 55.0673 20.0867 55.0673C21.4755 55.0673 22.0709 55.5613 23.057 56.3798C24.2668 57.3838 25.9235 58.7587 28.9826 58.7587C32.0416 58.7587 33.6984 57.3836 34.9083 56.3798C35.8945 55.5613 36.4896 55.0673 37.8786 55.0673C39.2676 55.0673 39.863 55.5613 40.8493 56.3798C42.059 57.3838 43.7159 58.7587 46.775 58.7587C49.8374 58.7587 51.4939 57.3813 52.7033 56.3756C52.9344 56.1834 53.1414 56.0121 53.3402 55.8603V74.3471H4.62741Z" fill="#0C96FC"/>
</svg>
