<svg width="71" height="79" viewBox="0 0 71 79" fill="none" xmlns="http://www.w3.org/2000/svg">
<path d="M60.5642 18.296C54.4116 12.1308 46.3966 8.5112 37.7904 7.95961V4.62741H41.1838C42.4616 4.62741 43.4975 3.59149 43.4975 2.31371C43.4975 1.03592 42.4616 0 41.1838 0H29.7695C28.4918 0 27.4558 1.03592 27.4558 2.31371C27.4558 3.59149 28.4918 4.62741 29.7695 4.62741H33.163V7.95961C27.2619 8.33783 21.6395 10.1587 16.7043 13.254L14.5065 11.0517C13.4368 9.97979 12.0138 9.38964 10.4996 9.38964C8.98536 9.38964 7.56243 9.97994 6.49288 11.0517L3.15019 14.4016C0.949854 16.6062 0.949854 20.1937 3.15019 22.3985L5.36302 24.616C1.8704 30.2045 0 36.6724 0 43.4289C0 52.9225 3.68959 61.8483 10.3892 68.5618C17.09 75.2764 25.9996 78.9745 35.4767 78.9745C44.9538 78.9745 53.8634 75.2764 60.5642 68.5618C67.2638 61.8483 70.9534 52.9225 70.9534 43.4289C70.9534 33.9353 67.2638 25.0095 60.5642 18.296ZM6.42562 17.6704L9.76847 14.3206C10.0319 14.0567 10.3396 14.0172 10.4998 14.0172C10.6599 14.0172 10.9677 14.0565 11.2312 14.3206L12.9079 16.0007C12.0384 16.7215 11.1974 17.4864 10.3893 18.2962C9.58353 19.1037 8.82232 19.9438 8.10491 20.8126L6.42562 19.1299C6.02397 18.7274 6.02397 18.0727 6.42562 17.6704ZM35.4767 74.3471C18.4663 74.3471 4.62741 60.4772 4.62741 43.4289C4.62741 26.3806 18.4663 12.5107 35.4767 12.5107C52.487 12.5107 66.3259 26.3804 66.3259 43.4289C66.3259 60.4774 52.487 74.3471 35.4767 74.3471Z" fill="#0C96FC"/>
<path d="M35.4765 16.8481C20.8474 16.8481 8.9458 28.7724 8.9458 43.4292C8.9458 58.0861 20.8474 70.0103 35.4765 70.0103C50.1056 70.0103 62.0071 58.0861 62.0071 43.4292C62.0071 28.7724 50.1056 16.8481 35.4765 16.8481ZM37.7902 65.2604V62.556C37.7902 61.2782 36.7542 60.2423 35.4765 60.2423C34.1987 60.2423 33.1628 61.2782 33.1628 62.556V65.2604C22.9275 64.1784 14.7719 56.0024 13.6948 45.7429H16.3498C17.6276 45.7429 18.6635 44.707 18.6635 43.4292C18.6635 42.1514 17.6276 41.1155 16.3498 41.1155H13.6949C14.7719 30.8561 22.9275 22.6801 33.1628 21.598V24.3024C33.1628 25.5802 34.1987 26.6161 35.4765 26.6161C36.7542 26.6161 37.7902 25.5802 37.7902 24.3024V21.598C48.0254 22.6801 56.181 30.8561 57.2582 41.1155H54.6031C53.3253 41.1155 52.2894 42.1514 52.2894 43.4292C52.2894 44.707 53.3253 45.7429 54.6031 45.7429H57.258C56.181 56.0024 48.0254 64.1784 37.7902 65.2604Z" fill="#0C96FC"/>
<path d="M41.185 42.0933H37.9209V32.7356C37.9209 31.4578 36.8849 30.4219 35.6072 30.4219C34.3294 30.4219 33.2935 31.4578 33.2935 32.7356V44.407C33.2935 45.6848 34.3294 46.7207 35.6072 46.7207H41.185C42.4628 46.7207 43.4988 45.6848 43.4988 44.407C43.4988 43.1292 42.4628 42.0933 41.185 42.0933Z" fill="#0C96FC"/>
</svg>
