<svg width="79" height="79" viewBox="0 0 79 79" fill="none" xmlns="http://www.w3.org/2000/svg">
<path d="M76.3828 14.343C75.9789 13.9391 75.5435 13.5785 75.0795 13.2632C75.256 10.8006 74.3399 8.32443 72.495 6.47957C70.6501 4.63472 68.1741 3.71877 65.7114 3.89511C65.396 3.43104 65.0355 2.99567 64.6316 2.59177C61.6355 -0.403996 56.949 -0.854333 53.6541 1.51059C52.885 1.99842 52.6649 2.82704 52.5705 3.18266C52.5154 3.39016 50.5727 11.3302 49.8825 14.2036C47.8545 13.6017 45.7281 13.2891 43.5534 13.2891C37.6418 13.2891 32.0839 15.5912 27.9038 19.7715L19.7716 27.9037C15.5915 32.0838 13.2892 37.6417 13.2893 43.5533C13.2893 45.728 13.6019 47.8544 14.2039 49.8824C11.3306 50.5725 3.39039 52.5152 3.18289 52.5702C2.82713 52.6648 1.99835 52.885 1.51052 53.6542C-0.854406 56.9489 -0.403915 61.6353 2.59201 64.6314C2.99591 65.0353 3.43128 65.3958 3.89535 65.7112C3.71885 68.1737 4.63495 70.6499 6.47981 72.4948C8.32466 74.3396 10.801 75.2557 13.2634 75.0792C13.5787 75.5433 13.9393 75.9787 14.3432 76.3826C16.0544 78.0937 18.3171 78.9744 20.557 78.9744C22.2387 78.9744 23.9076 78.478 25.3205 77.4637C26.0896 76.9759 26.3098 76.1473 26.4042 75.7917C26.4593 75.5842 28.4021 67.644 29.0922 64.7707C31.1201 65.3727 33.2466 65.6852 35.4213 65.6852C41.3329 65.6852 46.8907 63.3831 51.0709 59.2028L59.203 51.0707C63.3832 46.8905 65.6855 41.3326 65.6853 35.421C65.6853 33.2463 65.3728 31.1199 64.7708 29.0919C67.644 28.4018 75.5843 26.4592 75.7918 26.4039C76.1475 26.3095 76.976 26.0894 77.4638 25.3203C79.8291 22.0255 79.3787 17.3389 76.3828 14.343ZM35.7633 19.7374C38.0545 18.5967 40.5854 17.9716 43.2117 17.9216V59.2369C40.9205 60.3776 38.3896 61.0029 35.7633 61.0529V19.7374ZM23.0443 31.1762L31.1348 23.0857V60.5311C28.0991 59.7704 25.3147 58.2006 23.0443 55.9302C19.7383 52.6242 17.9177 48.2287 17.9177 43.5533C17.9177 38.8778 19.7384 34.4822 23.0443 31.1762ZM22.0825 74.0201C20.6646 74.6847 18.8523 74.3461 17.616 73.1099C17.1943 72.6881 16.8713 72.1976 16.6563 71.6521L15.8631 69.6406L13.8025 70.2955C12.4305 70.7318 10.8411 70.3102 9.75281 69.2219C8.66454 68.1336 8.24305 66.5441 8.67919 65.1723L9.3341 63.1116L7.32263 62.3184C6.7771 62.1032 6.28665 61.7805 5.86501 61.3587C4.62863 60.1223 4.29014 58.3101 4.95462 56.8922C6.68145 56.4557 10.9867 55.4142 16.0129 54.2076C17.0105 56.0188 18.2691 57.7001 19.7718 59.2029C21.2744 60.7056 22.9559 61.9641 24.767 62.9618C23.5605 67.9881 22.519 72.2933 22.0825 74.0201ZM55.9306 47.7981L47.8402 55.8886V18.4432C50.876 19.2039 53.6603 20.7737 55.9306 23.0441C59.2367 26.3501 61.0573 30.7456 61.0573 35.421C61.0573 40.0966 59.2365 44.4921 55.9306 47.7981ZM74.0203 22.0823C72.2934 22.5188 67.9885 23.5601 62.962 24.7667C61.9644 22.9555 60.7059 21.274 59.2032 19.7714C57.7005 18.2687 56.019 17.0103 54.208 16.0126C55.4144 10.9863 56.456 6.68106 56.8926 4.95423C58.3104 4.28975 60.1227 4.62824 61.3591 5.86447C61.7809 6.28626 62.1038 6.77671 62.3188 7.32224L63.112 9.33371L65.1727 8.6788C66.5445 8.24282 68.134 8.66415 69.2223 9.75242C70.3106 10.8407 70.7321 12.4302 70.2959 13.8021L69.641 15.8628L71.6525 16.6559C72.198 16.8711 72.6885 17.1939 73.1101 17.6157C74.3463 18.852 74.6848 20.6642 74.0203 22.0823Z" fill="#0C96FC"/>
</svg>
