<svg width="81" height="81" viewBox="0 0 81 81" fill="none" xmlns="http://www.w3.org/2000/svg">
<path d="M74.1683 54.609C71.393 51.8335 66.8767 51.8334 64.1012 54.6092L56.8171 61.8933C55.8036 59.1952 53.198 57.2697 50.1504 57.2697H42.4491C41.3564 57.2697 40.8735 56.6712 39.7667 55.6973C36.3155 52.6603 31.7104 51.1803 27.1331 51.6392C22.8858 52.0643 19.0646 54.0504 16.2516 57.2697H7.11914C5.80859 57.2697 4.74609 58.3322 4.74609 59.6427V78.6271C4.74609 79.9377 5.80859 81.0002 7.11914 81.0002C9.1144 81.0002 52.8954 81.0002 54.8965 81.0002C56.7976 81.0002 58.5853 80.2595 59.93 78.9146L74.1683 64.6763C76.9438 61.9008 76.9438 57.3846 74.1683 54.609ZM14.5547 76.2541H9.49219V62.0158H14.5547V76.2541ZM70.8124 61.3203L56.5741 75.5586C56.1322 76.0006 55.5208 76.2541 54.8965 76.2541C54.1173 76.2541 20.0636 76.2541 19.3008 76.2541V61.0357C21.3576 58.352 24.3043 56.6919 27.6058 56.3616C30.8759 56.0344 34.1663 57.0908 36.6315 59.2602C37.834 60.3186 39.4247 62.0158 42.4491 62.0158H50.1504C51.4589 62.0158 52.5234 63.0803 52.5234 64.3888C52.5234 65.6973 51.4589 66.7619 50.1504 66.7619H40.4559C38.1784 66.7619 36.0219 67.8636 34.6873 69.7089C33.9192 70.7709 34.1575 72.2544 35.2195 73.0225C36.2812 73.7905 37.7648 73.5523 38.5331 72.4903C38.9779 71.8752 39.6968 71.508 40.4559 71.508C42.9936 71.508 50.3515 71.508 52.9313 71.508C53.5608 71.508 54.1642 71.2579 54.6092 70.8128L67.457 57.965C68.3822 57.04 69.8872 57.04 70.8124 57.965C71.7375 58.8902 71.7375 60.3953 70.8124 61.3203Z" fill="#0C96FC"/>
<path d="M78.627 43.0312H76.1746C75.0985 26.4921 62.8044 13.0016 47.1263 10.088C47.543 9.18369 47.7773 8.17847 47.7773 7.11914C47.7773 3.19365 44.5837 0 40.6582 0C36.7327 0 33.5391 3.19365 33.5391 7.11914C33.5391 8.1772 33.7729 9.18132 34.1886 10.0848C18.5139 12.9785 5.92724 26.4324 4.82694 43.0312H2.37305C1.06249 43.0312 0 44.0937 0 45.4043C0 46.7149 1.06249 47.7773 2.37305 47.7773H78.627C79.9375 47.7773 81 46.7149 81 45.4043C81 44.0937 79.9375 43.0312 78.627 43.0312ZM40.6582 4.74609C41.9667 4.74609 43.0312 5.81064 43.0312 7.11914C43.0312 8.42764 41.9667 9.49219 40.6582 9.49219C39.3497 9.49219 38.2852 8.42764 38.2852 7.11914C38.2852 5.81064 39.3497 4.74609 40.6582 4.74609ZM9.58648 43.0312C10.8453 27.1953 24.5617 14.2066 40.6582 14.2066C56.8786 14.2066 70.215 26.9505 71.4191 43.0312H9.58648Z" fill="#0C96FC"/>
</svg>
