<svg width="79" height="79" viewBox="0 0 79 79" fill="none" xmlns="http://www.w3.org/2000/svg">
<path d="M44.7997 78.9745H34.1747C32.534 78.9745 31.059 78.0628 30.3256 76.5949C29.5921 75.1271 29.7486 73.4003 30.7337 72.0882L32.5269 69.6998V67.486C29.7325 66.7962 27.0829 65.6975 24.6132 64.2049L23.0454 65.7725L22.6245 68.7293C22.3933 70.3538 21.2827 71.6854 19.7262 72.2046C18.1698 72.724 16.4821 72.3257 15.3218 71.1654L7.80891 63.6525C6.64867 62.4924 6.2504 60.8048 6.76975 59.2483C7.28895 57.6918 8.62072 56.5812 10.2451 56.35L13.2019 55.9291L14.7695 54.3615C13.2768 51.892 12.1781 49.2423 11.4883 46.4478H9.27472L6.88636 48.2408C5.57418 49.226 3.84708 49.3822 2.37957 48.6489C0.911755 47.9155 0 46.4406 0 44.7997V34.1747C0 32.534 0.911755 31.059 2.37957 30.3256C3.84769 29.5923 5.57434 29.7487 6.88636 30.7337L9.27472 32.5269H11.4885C12.1784 29.7324 13.277 27.0827 14.7696 24.6132L13.202 23.0456L10.2452 22.6247C8.62072 22.3934 7.2891 21.2829 6.7699 19.7264C6.25071 18.1698 6.64882 16.4822 7.80907 15.322L15.322 7.80907C16.4821 6.64897 18.1697 6.25055 19.7262 6.7699C21.2827 7.2891 22.3933 8.62087 22.6245 10.2452L23.0454 13.202L24.6131 14.7696C27.0826 13.277 29.7322 12.1783 32.5267 11.4885V9.27472L30.7337 6.88636C29.7486 5.57418 29.5923 3.84723 30.3256 2.37957C31.0589 0.911909 32.534 0 34.1748 0H44.7998C46.4406 0 47.9155 0.911755 48.6489 2.37957C49.3824 3.84739 49.226 5.57418 48.2408 6.88636L46.4477 9.27472V11.4885C49.2421 12.1784 51.8918 13.277 54.3613 14.7696L55.9289 13.202L56.3499 10.2452C56.5811 8.62072 57.6917 7.2891 59.2482 6.7699C60.8047 6.25071 62.4923 6.64882 63.6525 7.80907L71.1654 15.322C72.3257 16.4821 72.724 18.1697 72.2046 19.7262C71.6854 21.2827 70.3536 22.3933 68.7293 22.6245L65.7725 23.0454L64.2049 24.6131C65.6975 27.0826 66.7962 29.7322 67.486 32.5267H69.6998L72.0882 30.7336C73.4003 29.7484 75.1274 29.5921 76.5949 30.3254C78.0628 31.0589 78.9745 32.5338 78.9745 34.1745V44.7995C78.9745 46.4403 78.0628 47.9152 76.5949 48.6486C75.1271 49.3821 73.4003 49.2256 72.0882 48.2405L69.6998 46.4473H67.486C66.7961 49.2418 65.6975 51.8915 64.2049 54.361L65.7725 55.9286L68.7293 56.3495C70.3538 56.5808 71.6854 57.6913 72.2046 59.2478C72.7238 60.8044 72.3257 62.492 71.1654 63.6522L63.6525 71.1651C62.4924 72.3252 60.8047 72.7236 59.2483 72.2043C57.6918 71.6851 56.5812 70.3533 56.35 68.729L55.9291 65.7722L54.3615 64.2046C51.8918 65.6972 49.2421 66.7959 46.4478 67.4857V69.6995L48.2409 72.0878C49.2261 73.4 49.3824 75.127 48.6491 76.5946C47.9158 78.0623 46.4406 78.9745 44.7997 78.9745ZM34.8242 74.3471H44.1503L42.682 72.3914C42.1263 71.6513 41.8202 70.7339 41.8202 69.8079V65.6115C41.8202 64.4889 42.626 63.5284 43.7315 63.3331C47.2067 62.7192 50.4414 61.3782 53.346 59.3472C54.2657 58.7041 55.5145 58.8136 56.3079 59.6072L59.2776 62.5768C59.9322 63.2314 60.3644 64.0966 60.4949 65.0131L60.8395 67.4341L67.4341 60.8395L65.0131 60.4949C64.0966 60.3644 63.2314 59.9322 62.577 59.2776L59.6072 56.3079C58.8136 55.5143 58.7041 54.2657 59.3472 53.3459C61.3782 50.4416 62.7192 47.2069 63.3331 43.7314C63.5284 42.6259 64.489 41.8201 65.6115 41.8201H69.8079C70.7337 41.8201 71.6512 42.1261 72.3914 42.6819L74.3471 44.1503V34.8242L72.3914 36.2925C71.6513 36.8482 70.7339 37.1543 69.8079 37.1543H65.6115C64.4889 37.1543 63.5284 36.3485 63.3331 35.243C62.7192 31.7677 61.3782 28.5329 59.3472 25.6283C58.7041 24.7087 58.8138 23.4599 59.6074 22.6665L62.577 19.6969C63.2314 19.0423 64.0968 18.6101 65.0131 18.4796L67.4341 18.135L60.8395 11.5405L60.4949 13.9614C60.3644 14.8779 59.9322 15.7431 59.2776 16.3975L56.3079 19.3673C55.5141 20.1607 54.2658 20.2704 53.3459 19.6273C50.4416 17.5964 47.2069 16.2553 43.7314 15.6414C42.6259 15.446 41.8202 14.4855 41.8202 13.363V9.16644C41.8202 8.24065 42.1264 7.32303 42.6822 6.5828L44.1503 4.62741H34.8242L36.2925 6.58311C36.8482 7.32319 37.1543 8.24065 37.1543 9.1666V13.363C37.1543 14.4855 36.3485 15.4461 35.2431 15.6414C31.7677 16.2553 28.5329 17.5965 25.6286 19.6273C24.709 20.2705 23.4602 20.1609 22.6666 19.3673L19.6969 16.3977C19.0423 15.7431 18.6101 14.8779 18.4796 13.9614L18.135 11.5405L11.5405 18.135L13.9614 18.4796C14.8779 18.6101 15.7431 19.0423 16.3975 19.6969L19.3671 22.6665C20.1607 23.4601 20.2704 24.7087 19.6273 25.6283C17.5964 28.5328 16.2553 31.7677 15.6414 35.243C15.4461 36.3485 14.4855 37.1543 13.363 37.1543H9.16644C8.24065 37.1543 7.32303 36.8481 6.5828 36.2923L4.62741 34.8242V44.1503L6.58311 42.682C7.32319 42.1263 8.24065 41.8202 9.1666 41.8202H13.363C14.4857 41.8202 15.4461 42.626 15.6414 43.7315C16.2553 47.2069 17.5964 50.4416 19.6273 53.346C20.2705 54.2658 20.1609 55.5145 19.3673 56.3081L16.3977 59.2778C15.7431 59.9324 14.8779 60.3646 13.9614 60.4951L11.5405 60.8397L18.135 67.4342L18.4796 65.0133C18.6101 64.0968 19.0423 63.2316 19.6969 62.5771L22.6666 59.6074C23.4601 58.814 24.7087 58.7043 25.6285 59.3473C28.5331 61.3783 31.7678 62.7193 35.243 63.3332C36.3485 63.5285 37.1543 64.4892 37.1543 65.6116V69.8081C37.1543 70.7339 36.8481 71.6515 36.2923 72.3917L34.8242 74.3471Z" fill="#0C96FC"/>
<path d="M31.7365 41.0203C26.6173 41.0203 22.4526 36.8556 22.4526 31.7365C22.4526 26.6173 26.6173 22.4526 31.7365 22.4526C36.8556 22.4526 41.0203 26.6173 41.0203 31.7365C41.0203 36.8556 36.8555 41.0203 31.7365 41.0203ZM31.7365 27.08C29.1689 27.08 27.08 29.1689 27.08 31.7365C27.08 34.3041 29.1689 36.3929 31.7365 36.3929C34.3041 36.3929 36.3927 34.3041 36.3927 31.7365C36.3927 29.1689 34.3041 27.08 31.7365 27.08Z" fill="#0C96FC"/>
<path d="M48.7824 55.7411C44.9444 55.7411 41.822 52.6187 41.822 48.7807C41.822 44.9427 44.9444 41.8203 48.7824 41.8203C52.6204 41.8203 55.7428 44.9427 55.7428 48.7807C55.7428 52.6187 52.6204 55.7411 48.7824 55.7411ZM48.7824 46.4477C47.496 46.4477 46.4494 47.4943 46.4494 48.7807C46.4494 50.0671 47.496 51.1137 48.7824 51.1137C50.0688 51.1137 51.1154 50.0671 51.1154 48.7807C51.1154 47.4943 50.0688 46.4477 48.7824 46.4477Z" fill="#0C96FC"/>
<path d="M30.6963 54.4497C31.9065 54.4497 33.066 53.3855 33.01 52.136C32.9538 50.8824 31.9933 49.8223 30.6963 49.8223C29.486 49.8223 28.3266 50.8864 28.3826 52.136C28.4387 53.3895 29.3992 54.4497 30.6963 54.4497Z" fill="#0C96FC"/>
<path d="M54.1421 38.8706C55.3523 38.8706 56.5118 37.8064 56.4558 36.5569C56.3996 35.3033 55.4391 34.2432 54.1421 34.2432C52.9318 34.2432 51.7724 35.3073 51.8284 36.5569C51.8845 37.8104 52.845 38.8706 54.1421 38.8706Z" fill="#0C96FC"/>
<path d="M46.738 27.9189C47.9482 27.9189 49.1077 26.8548 49.0517 25.6052C48.9956 24.3516 48.0351 23.2915 46.738 23.2915C45.5278 23.2915 44.3683 24.3557 44.4243 25.6052C44.4805 26.8588 45.441 27.9189 46.738 27.9189Z" fill="#0C96FC"/>
</svg>
