<svg width="79" height="75" viewBox="0 0 79 75" fill="none" xmlns="http://www.w3.org/2000/svg">
<path d="M76.5085 22.2075H2.46991C1.1076 22.2075 0.00195312 23.3132 0.00195312 24.6755C0.00195312 26.0378 1.1076 27.1434 2.46991 27.1434H76.5085C77.8708 27.1434 78.9765 26.0378 78.9765 24.6755C78.9765 23.3132 77.8708 22.2075 76.5085 22.2075Z" fill="#0C96FC"/>
<path d="M61.0796 23.0365L41.336 0.824928C40.3982 -0.231356 38.5768 -0.231356 37.644 0.824928L17.9003 23.0365C16.9971 24.0533 17.0859 25.618 18.1076 26.5213C19.1244 27.4245 20.6842 27.3357 21.5924 26.3139L39.49 6.17545L57.3876 26.3139C57.8762 26.8618 58.5525 27.1432 59.2336 27.1432C59.816 27.1432 60.4034 26.9359 60.8723 26.5213C61.8891 25.6131 61.9879 24.0533 61.0796 23.0365Z" fill="#0C96FC"/>
<path d="M78.3612 23.0514L61.0855 3.30774C60.6906 2.85364 60.1378 2.55748 59.5406 2.48344L39.797 0.015491C39.6045 -0.00425262 39.4268 -0.00425256 39.2441 0.0105552L14.5646 2.47851C13.8045 2.55255 13.1233 2.97704 12.7186 3.62364L0.378797 23.3673C-0.178961 24.2508 -0.114794 25.3861 0.53181 26.2054L37.5511 73.0965C38.02 73.6888 38.7357 74.0343 39.4909 74.0343C40.2461 74.0343 40.9618 73.6888 41.4258 73.0965L78.4451 26.2054C79.1805 25.2725 79.146 23.9448 78.3612 23.0514ZM39.4909 67.5831L5.48252 24.5075L16.2625 7.2614L39.4613 4.94153L57.9956 7.2614L73.3019 24.7543L39.4909 67.5831Z" fill="#0C96FC"/>
<path d="M41.7663 70.6087L22.0226 23.7176C21.4896 22.4589 20.0335 21.8814 18.7896 22.3997C17.531 22.9278 16.9436 24.3741 17.4717 25.6327L37.2154 72.5238C37.6152 73.4666 38.5283 74.0342 39.4908 74.0342C39.8067 74.0342 40.1374 73.9701 40.4484 73.8417C41.7021 73.3136 42.2944 71.8674 41.7663 70.6087Z" fill="#0C96FC"/>
<path d="M60.193 22.3999C58.9245 21.8668 57.4881 22.464 56.96 23.7178L37.2164 70.6089C36.6882 71.8675 37.2756 73.3137 38.5342 73.8419C38.8452 73.9702 39.171 74.0344 39.4918 74.0344C40.4543 74.0344 41.3674 73.4668 41.7673 72.524L61.5109 25.6329C62.039 24.3742 61.4467 22.928 60.193 22.3999Z" fill="#0C96FC"/>
<path d="M22.1427 24.0781L17.2068 4.33449C16.8761 3.01166 15.5286 2.20218 14.2156 2.53782C12.8928 2.86852 12.0882 4.21109 12.4239 5.52898L17.3598 25.2726C17.6362 26.398 18.6431 27.1433 19.7488 27.1433C19.9462 27.1433 20.1486 27.1186 20.346 27.0693C21.6688 26.7386 22.4734 25.4009 22.1427 24.0781Z" fill="#0C96FC"/>
<path d="M59.2355 2.46387C57.8732 2.46387 56.7676 3.56951 56.7676 4.93182V24.6754C56.7676 26.0378 57.8732 27.1434 59.2355 27.1434C60.5978 27.1434 61.7035 26.0378 61.7035 24.6754V4.93182C61.7035 3.56951 60.5978 2.46387 59.2355 2.46387Z" fill="#0C96FC"/>
</svg>
