<svg width="30" height="24" viewBox="0 0 30 24" fill="none" xmlns="http://www.w3.org/2000/svg">
<path d="M29.3634 16.1168L26.5983 11.5083C26.4324 11.2299 26.1319 11.0603 25.8075 11.0603H20.2773V8.29526C20.2773 7.78648 19.8644 7.37356 19.3556 7.37356H12.8097C12.854 7.0694 12.9037 6.76709 12.9037 6.45187C12.9037 2.89412 10.0096 0 6.45187 0C2.89412 0 0 2.89412 0 6.45187C0 8.20309 0.706019 9.7884 1.84339 10.9534V21.199C1.84339 21.7078 2.25631 22.1207 2.76509 22.1207H5.69976C6.08134 23.1917 7.09521 23.9641 8.29526 23.9641C9.4953 23.9641 10.5092 23.1917 10.8907 22.1207H19.3556H22.2903C22.6719 23.1917 23.6857 23.9641 24.8858 23.9641C26.0858 23.9641 27.0997 23.1917 27.4813 22.1207H28.5725C29.0813 22.1207 29.4942 21.7078 29.4942 21.199V16.5905C29.4942 16.4228 29.45 16.2587 29.3634 16.1168ZM1.84339 6.45187C1.84339 3.91167 3.90983 1.84339 6.45187 1.84339C8.9939 1.84339 11.0603 3.91167 11.0603 6.45187C11.0603 8.99206 8.9939 11.0603 6.45187 11.0603C3.90983 11.0603 1.84339 8.99206 1.84339 6.45187ZM8.29526 22.1207C7.78832 22.1207 7.37356 21.7078 7.37356 21.199C7.37356 20.6902 7.78832 20.2773 8.29526 20.2773C8.80219 20.2773 9.21695 20.6902 9.21695 21.199C9.21695 21.7078 8.80219 22.1207 8.29526 22.1207ZM18.4339 20.2773H10.8907C10.5092 19.2063 9.4953 18.4339 8.29526 18.4339C7.09521 18.4339 6.08134 19.2063 5.69976 20.2773H3.68678V12.2567C4.52737 12.6586 5.45828 12.9037 6.45187 12.9037C9.01602 12.9037 11.217 11.3885 12.2567 9.21695H18.4339V20.2773ZM24.8858 22.1207C24.3788 22.1207 23.9641 21.7078 23.9641 21.199C23.9641 20.6902 24.3788 20.2773 24.8858 20.2773C25.3927 20.2773 25.8075 20.6902 25.8075 21.199C25.8075 21.7078 25.3927 22.1207 24.8858 22.1207ZM27.6509 20.2773H27.4813C27.0997 19.2063 26.0858 18.4339 24.8858 18.4339C23.6857 18.4339 22.6719 19.2063 22.2903 20.2773H20.2773V12.9037H25.2858L27.6509 16.8467V20.2773Z" fill="#4B3D92"/>
<path d="M8.94767 7.64453L7.37342 6.07027V4.60846C7.37342 4.09969 6.9605 3.68677 6.45172 3.68677C5.94295 3.68677 5.53003 4.09969 5.53003 4.60846V6.45185C5.53003 6.69702 5.62773 6.93113 5.79916 7.10441L7.64255 8.9478C7.82321 9.12661 8.05916 9.21694 8.29511 9.21694C8.53107 9.21694 8.76702 9.12661 8.94767 8.9478C9.30714 8.58834 9.30714 8.00399 8.94767 7.64453Z" fill="#4B3D92"/>
</svg>
