<svg width="30" height="26" viewBox="0 0 30 26" fill="none" xmlns="http://www.w3.org/2000/svg">
<path d="M25.9581 7.9871H19.112V3.7083C19.112 1.66352 17.4485 0 15.4037 0H13.6922C12.5912 0 11.6954 0.895728 11.6954 1.9968V7.98716H9.9839V6.56091C9.9839 6.08827 9.60073 5.70516 9.12815 5.70516H0.855748C0.383172 5.70504 0 6.08822 0 6.56079V24.817C0 25.2897 0.383172 25.6728 0.855748 25.6728H9.12809C9.60073 25.6728 9.98384 25.2896 9.98384 24.817V24.5318H25.9581C28.0029 24.5318 29.6664 22.8683 29.6664 20.8235V11.6954C29.6664 9.65062 28.0029 7.9871 25.9581 7.9871ZM8.27235 23.9613H1.7115V7.4166H8.27235V23.9613ZM27.9549 20.8235C27.9549 21.9245 27.0592 22.8203 25.9581 22.8203H9.9839V9.69859H12.5512C13.0238 9.69859 13.407 9.31542 13.407 8.84284V1.99675C13.407 1.83943 13.5349 1.7115 13.6922 1.7115H15.4037C16.5047 1.7115 17.4005 2.60722 17.4005 3.7083V8.84284C17.4005 9.31548 17.7837 9.69859 18.2562 9.69859H25.9581C27.0591 9.69859 27.9549 10.5943 27.9549 11.6954V20.8235Z" fill="#4B3D92"/>
</svg>
