<svg width="30" height="30" viewBox="0 0 30 30" fill="none" xmlns="http://www.w3.org/2000/svg">
<path d="M26.9418 0H2.5524C1.14498 0 0 1.14498 0 2.5524V26.9419C0 28.3493 1.14498 29.4942 2.5524 29.4942H26.9419C28.3493 29.4942 29.4942 28.3493 29.4942 26.9418V2.5524C29.4942 1.14498 28.3493 0 26.9418 0ZM9.92597 1.70156H19.5683V15.2401L15.3086 11.8153C14.9984 11.5659 14.5569 11.5649 14.2456 11.8127L9.92597 15.2512V1.70156ZM27.7927 26.9418C27.7927 27.411 27.411 27.7926 26.9419 27.7926H2.5524C2.08326 27.7926 1.70162 27.411 1.70162 26.9418V2.5524C1.70162 2.08326 2.08326 1.70162 2.5524 1.70162H8.2244V17.0159C8.2244 17.3426 8.41145 17.6404 8.7057 17.7823C8.82316 17.839 8.94943 17.8668 9.07507 17.8667C9.26407 17.8667 9.45158 17.8038 9.60504 17.6816L14.7728 13.5679L19.8859 17.679C20.1412 17.8842 20.4915 17.9247 20.7867 17.7832C21.082 17.6417 21.2699 17.3434 21.2699 17.0159V1.70156H26.9419C27.411 1.70156 27.7927 2.0832 27.7927 2.55235V26.9418Z" fill="#4B3D92"/>
<path d="M12.1938 23.2551H5.3874C4.91751 23.2551 4.53662 23.6361 4.53662 24.1059C4.53662 24.5757 4.91757 24.9567 5.3874 24.9567H12.1938C12.6637 24.9567 13.0446 24.5757 13.0446 24.1059C13.0446 23.6361 12.6637 23.2551 12.1938 23.2551Z" fill="#4B3D92"/>
</svg>
