<svg width="26" height="30" viewBox="0 0 26 30" fill="none" xmlns="http://www.w3.org/2000/svg">
<path d="M23.3304 3.45636H22.4663V2.59227C22.4663 1.16289 21.3034 0 19.8741 0H2.59227C1.16289 0 0 1.16289 0 2.59227V23.4456C0 24.875 1.16289 26.0379 2.59227 26.0379H3.45636V26.902C3.45636 28.3314 4.61925 29.4942 6.04862 29.4942H23.3304C24.7598 29.4942 25.9227 28.3314 25.9227 26.902V6.04862C25.9227 4.61925 24.7598 3.45636 23.3304 3.45636ZM4.2156 6.65965C3.72595 7.14924 3.45636 7.80019 3.45636 8.49261V24.3097H2.59227C2.11581 24.3097 1.72818 23.9221 1.72818 23.4456V2.59227C1.72818 2.11581 2.11581 1.72818 2.59227 1.72818H19.8741C20.3505 1.72818 20.7381 2.11581 20.7381 2.59227V3.45636H8.49261C7.80019 3.45636 7.14924 3.72601 6.65965 4.2156L4.2156 6.65965ZM8.64089 5.18454V8.64089H5.18454V8.49261C5.18454 8.26184 5.2744 8.04484 5.4376 7.88165L7.88165 5.4376C8.04484 5.2744 8.26184 5.18454 8.49261 5.18454H8.64089ZM24.1945 26.902C24.1945 27.3784 23.8069 27.7661 23.3304 27.7661H6.04862C5.57217 27.7661 5.18454 27.3784 5.18454 26.902V10.3691H9.50498C9.98219 10.3691 10.3691 9.98219 10.3691 9.50498V5.18454H23.3304C23.8069 5.18454 24.1945 5.57217 24.1945 6.04862V26.902Z" fill="#4B3D92"/>
<path d="M21.6019 12.2124H7.77644C7.29924 12.2124 6.91235 12.5993 6.91235 13.0765C6.91235 13.5537 7.29924 13.9406 7.77644 13.9406H21.6019C22.0791 13.9406 22.466 13.5537 22.466 13.0765C22.466 12.5993 22.0791 12.2124 21.6019 12.2124Z" fill="#4B3D92"/>
<path d="M21.6019 15.6687H7.77644C7.29924 15.6687 6.91235 16.0556 6.91235 16.5328C6.91235 17.01 7.29924 17.3969 7.77644 17.3969H21.6019C22.0791 17.3969 22.466 17.01 22.466 16.5328C22.466 16.0556 22.0791 15.6687 21.6019 15.6687Z" fill="#4B3D92"/>
<path d="M21.6019 19.1252H7.77644C7.29924 19.1252 6.91235 19.5121 6.91235 19.9893C6.91235 20.4665 7.29924 20.8534 7.77644 20.8534H21.6019C22.0791 20.8534 22.466 20.4665 22.466 19.9893C22.466 19.5121 22.0791 19.1252 21.6019 19.1252Z" fill="#4B3D92"/>
<path d="M21.6019 22.5815H7.77644C7.29924 22.5815 6.91235 22.9684 6.91235 23.4456C6.91235 23.9228 7.29924 24.3097 7.77644 24.3097H21.6019C22.0791 24.3097 22.466 23.9228 22.466 23.4456C22.466 22.9684 22.0791 22.5815 21.6019 22.5815Z" fill="#4B3D92"/>
</svg>
