<svg width="22" height="25" viewBox="0 0 22 25" fill="none" xmlns="http://www.w3.org/2000/svg">
<path d="M18.6554 7.66839L19.6336 6.69026C20.0137 6.31016 20.0137 5.69386 19.6336 5.31395C19.2535 4.93385 18.6374 4.93385 18.2573 5.31395L17.2791 6.29208C15.6381 4.92472 13.6439 4.09866 11.5168 3.90528V1.94655H12.4576C12.9951 1.94655 13.4308 1.51068 13.4308 0.97318C13.4308 0.435676 12.9951 0 12.4576 0H8.62938C8.09188 0 7.6562 0.435676 7.6562 0.97318C7.6562 1.51068 8.09188 1.94655 8.62938 1.94655H9.57021V3.90528C4.24541 4.38949 0 8.86274 0 14.4039C0 20.2312 4.71554 24.9475 10.5436 24.9475C16.3707 24.9475 21.087 20.232 21.087 14.4039C21.087 11.9148 20.2297 9.55746 18.6554 7.66839ZM10.5434 23.001C5.80311 23.001 1.94636 19.1444 1.94636 14.4039C1.94636 9.66366 5.80311 5.80711 10.5434 5.80711C15.2839 5.80711 19.1404 9.66366 19.1404 14.4039C19.1404 19.1444 15.2839 23.001 10.5434 23.001ZM15.0537 9.89378C15.4338 10.2739 15.4338 10.8902 15.0537 11.2701L11.2316 15.0922C10.8515 15.4723 10.2352 15.4723 9.85533 15.0922C9.47523 14.7121 9.47523 14.0958 9.85533 13.7159L13.6772 9.89378C14.0573 9.51368 14.6736 9.51368 15.0537 9.89378Z" fill="#4B3D92"/>
</svg>
