<svg width="30" height="25" viewBox="0 0 30 25" fill="none" xmlns="http://www.w3.org/2000/svg">
<path d="M27.9911 7.14285V6.04851C27.9911 4.61913 26.8052 3.4563 25.3759 3.4563H13.3191L10.1158 0.253121C9.95379 0.0910751 9.73402 0 9.50487 0H2.59221C1.16289 0 0 1.16283 0 2.59221V21.6019C0 23.0313 1.16289 24.1941 2.59221 24.1941C3.3734 24.1941 24.723 24.1941 25.5573 24.1941C26.88 24.1941 27.9876 23.2028 28.1336 21.8881L29.3077 11.3222C29.3077 11.3217 29.3078 11.3212 29.3078 11.3208L29.4778 9.79111C29.6019 8.67459 29.0157 7.60554 27.9911 7.14285ZM3.54697 22.466H2.59221C2.11575 22.466 1.72812 22.0783 1.72812 21.6019V2.59221C1.72812 2.11575 2.11575 1.72812 2.59221 1.72812H9.1469L12.3501 4.9313C12.5122 5.09334 12.732 5.18442 12.9611 5.18442H25.3758C25.8523 5.18442 26.2745 5.57205 26.2745 6.04851V6.9126H7.59529C6.27254 6.9126 5.16501 7.90394 5.01892 9.21857C4.96195 9.7312 3.65757 21.4704 3.54697 22.466ZM26.4161 21.6973C26.3674 22.1355 25.9982 22.466 25.5573 22.466H5.28581L6.43793 12.097H27.4828L26.4161 21.6973ZM27.7602 9.60026L27.6748 10.3689H6.62987L6.7365 9.40936C6.78517 8.97115 7.15437 8.64072 7.59529 8.64072H26.9014C27.4168 8.64078 27.8172 9.08688 27.7602 9.60026Z" fill="#4B3D92"/>
</svg>
