<svg width="30" height="25" viewBox="0 0 30 25" fill="none" xmlns="http://www.w3.org/2000/svg">
<path d="M26.902 0H9.50498C8.0756 0 6.91271 1.16289 6.91271 2.59227V3.45636H6.04862C4.61925 3.45636 3.45636 4.61925 3.45636 6.04862V6.91271H2.59227C1.15943 6.91271 0 8.0801 0 9.50498V21.6022C0 23.0317 1.16525 24.1945 2.59227 24.1945H19.8741C21.2981 24.1945 22.4663 23.035 22.4663 21.6022V20.7381H23.4456C24.875 20.7381 26.0379 19.5752 26.0379 18.1459V17.2818H26.902C28.3314 17.2818 29.4942 16.1189 29.4942 14.6895V2.59227C29.4942 1.16289 28.3314 0 26.902 0ZM19.4334 8.64089L11.847 16.2985C11.5087 16.6401 10.9577 16.6401 10.6193 16.2985L3.03295 8.64089H19.4334ZM1.72818 21.2443V9.77942L7.43387 15.5387L1.72818 21.2443ZM2.95017 22.4663L8.65017 16.7664L9.39161 17.5148C10.4069 18.5396 12.0596 18.5394 13.0748 17.5148L13.8162 16.7664L19.5161 22.4663H2.95017ZM20.7381 21.2444L15.0324 15.5387L20.7381 9.77942V21.2444ZM24.3097 18.1459C24.3097 18.6223 23.9221 19.01 23.4456 19.01H22.4663V9.50498C22.4663 8.0805 21.3072 6.91271 19.8741 6.91271H5.18454V6.04862C5.18454 5.57217 5.57217 5.18454 6.04862 5.18454H23.4456C23.9221 5.18454 24.3097 5.57217 24.3097 6.04862V18.1459ZM27.7661 14.6895C27.7661 15.166 27.3784 15.5536 26.902 15.5536H26.0379V6.04862C26.0379 4.61925 24.875 3.45636 23.4456 3.45636H8.64089V2.59227C8.64089 2.11581 9.02852 1.72818 9.50498 1.72818H26.902C27.3784 1.72818 27.7661 2.11581 27.7661 2.59227V14.6895Z" fill="#4B3D92"/>
</svg>
