<svg width="30" height="30" viewBox="0 0 30 30" fill="none" xmlns="http://www.w3.org/2000/svg">
<path d="M28.7323 9.28187C27.7216 8.27112 26.077 8.27118 25.066 9.2821C24.755 9.59335 22.7696 11.5803 22.4663 11.8839V5.03626C22.4663 4.34383 22.1967 3.69289 21.707 3.20329L19.2631 0.759246C18.7735 0.269596 18.1225 0 17.4301 0H2.59227C1.16289 0 0 1.16289 0 2.59227V26.902C0 28.3314 1.16289 29.4942 2.59227 29.4942H19.8741C21.3034 29.4942 22.4663 28.3314 22.4663 26.902V19.2191L28.7322 12.9479C29.7453 11.9349 29.7456 10.295 28.7323 9.28187ZM17.2818 1.72818C17.4451 1.72818 17.7597 1.69989 18.0411 1.98124L20.4851 4.42529C20.7593 4.69955 20.7382 5.00008 20.7382 5.18454H17.2818V1.72818ZM20.7381 26.902C20.7381 27.3784 20.3506 27.7661 19.8741 27.7661H2.59227C2.11581 27.7661 1.72818 27.3784 1.72818 26.902V2.59227C1.72818 2.11581 2.11581 1.72818 2.59227 1.72818H15.5536V6.04862C15.5536 6.52583 15.9405 6.91271 16.4177 6.91271H20.7381V13.6136C20.7381 13.6136 18.1888 16.1651 18.1887 16.1651L16.9673 17.3866C16.8725 17.4814 16.8009 17.5971 16.7585 17.7244L15.5365 21.3904C15.433 21.7009 15.5138 22.0433 15.7453 22.2747C15.977 22.5064 16.3195 22.5868 16.6295 22.4834L20.2956 21.2614C20.4228 21.219 20.5385 21.1475 20.6333 21.0527L20.7381 20.9478V26.902ZM18.8003 17.9977L20.0223 19.2196L19.5555 19.6864L17.7225 20.2974L18.3335 18.4644L18.8003 17.9977ZM21.244 17.9974L20.022 16.7754C20.6728 16.1241 23.5628 13.2316 24.1757 12.6182L25.3977 13.8402L21.244 17.9974ZM27.51 11.7262L26.6192 12.6177L25.3972 11.3957L26.2883 10.5039C26.6254 10.1669 27.1735 10.167 27.5104 10.5039C27.8472 10.8409 27.849 11.3871 27.51 11.7262Z" fill="#4B3D92"/>
<path d="M16.4169 8.64087H4.31966C3.84245 8.64087 3.45557 9.02775 3.45557 9.50496C3.45557 9.98217 3.84245 10.369 4.31966 10.369H16.4169C16.8941 10.369 17.281 9.98217 17.281 9.50496C17.281 9.02775 16.8941 8.64087 16.4169 8.64087Z" fill="#4B3D92"/>
<path d="M12.9605 12.0972H4.31966C3.84245 12.0972 3.45557 12.484 3.45557 12.9613C3.45557 13.4385 3.84245 13.8253 4.31966 13.8253H12.9605C13.4378 13.8253 13.8246 13.4385 13.8246 12.9613C13.8246 12.484 13.4378 12.0972 12.9605 12.0972Z" fill="#4B3D92"/>
<path d="M12.9605 15.5535H4.31966C3.84245 15.5535 3.45557 15.9403 3.45557 16.4176C3.45557 16.8948 3.84245 17.2816 4.31966 17.2816H12.9605C13.4378 17.2816 13.8246 16.8948 13.8246 16.4176C13.8246 15.9403 13.4378 15.5535 12.9605 15.5535Z" fill="#4B3D92"/>
<path d="M12.9605 19.01H4.31966C3.84245 19.01 3.45557 19.3969 3.45557 19.8741C3.45557 20.3513 3.84245 20.7382 4.31966 20.7382H12.9605C13.4378 20.7382 13.8246 20.3513 13.8246 19.8741C13.8246 19.3969 13.4378 19.01 12.9605 19.01Z" fill="#4B3D92"/>
<path d="M16.4183 24.3098H11.2337C10.7565 24.3098 10.3696 24.6967 10.3696 25.1739C10.3696 25.6511 10.7565 26.038 11.2337 26.038H16.4183C16.8955 26.038 17.2823 25.6511 17.2823 25.1739C17.2823 24.6967 16.8955 24.3098 16.4183 24.3098Z" fill="#4B3D92"/>
</svg>
