<svg width="30" height="30" viewBox="0 0 30 30" fill="none" xmlns="http://www.w3.org/2000/svg">
<path d="M26.9418 4.82116H20.8719C21.1254 4.35754 21.2698 3.82601 21.2698 3.26136C21.2699 1.46302 19.8069 0 18.0085 0H17.1577C16.2037 0 15.344 0.411825 14.7471 1.06703C14.1502 0.411825 13.2906 0 12.3365 0H11.4858C9.68742 0 8.2244 1.46302 8.2244 3.26136C8.2244 3.82601 8.36882 4.35754 8.62234 4.82116H2.5524C1.14498 4.82116 0 5.96619 0 7.37356V9.64237C0 11.0497 1.14498 12.1948 2.5524 12.1948V17.7249V22.2625V26.9419C2.5524 28.3493 3.69738 29.4943 5.10481 29.4943H12.4784H17.0159H24.3895C25.7969 29.4943 26.9419 28.3493 26.9419 26.9419V22.2625V17.7249V12.1948C28.3493 12.1948 29.4943 11.0498 29.4943 9.64237V7.37356C29.4942 5.96619 28.3493 4.82116 26.9418 4.82116ZM15.5979 3.26136C15.5979 2.40125 16.2976 1.70156 17.1577 1.70156H18.0085C18.8686 1.70156 19.5683 2.40125 19.5683 3.26136C19.5683 4.12148 18.8686 4.82116 18.0085 4.82116H15.5979V3.26136ZM11.4858 1.70156H12.3365C13.1967 1.70156 13.8963 2.40125 13.8963 3.26136V4.82116H11.4858C10.6256 4.82116 9.92597 4.12148 9.92597 3.26136C9.92597 2.4013 10.6256 1.70156 11.4858 1.70156ZM11.6275 27.7927H5.10475C4.63561 27.7927 4.25397 27.411 4.25397 26.9419V23.1133H11.6275V27.7927ZM11.6275 21.4117H4.25397V18.5757H11.6275V21.4117ZM11.6275 16.8741H4.25397V12.1947H11.6275V16.8741ZM16.1651 27.7927H13.3291V12.1947H16.1651V27.7927ZM25.2403 26.9418C25.2403 27.411 24.8586 27.7926 24.3895 27.7926H17.8667V23.1132H25.2403V26.9418ZM25.2403 21.4117H17.8667V18.5757H25.2403V21.4117ZM25.2403 16.8741H17.8667V12.1947H25.2403V16.8741ZM27.7927 9.64237C27.7927 10.1115 27.411 10.4932 26.9419 10.4932H2.5524C2.08326 10.4932 1.70162 10.1115 1.70162 9.64237V7.37356C1.70162 6.90442 2.08326 6.52278 2.5524 6.52278H26.9419C27.411 6.52278 27.7927 6.90442 27.7927 7.37356V9.64237Z" fill="#4B3D92"/>
</svg>
