<svg width="36" height="36" viewBox="0 0 36 36" fill="none" xmlns="http://www.w3.org/2000/svg">
<path d="M31.7946 30.3051C37.9444 23.2119 35.8046 12.1846 27.4407 7.88283C25.0252 3.20529 20.143 0 14.5259 0C6.51672 0 0.000841702 6.51629 0.000841702 14.5259C0.000841702 18.0521 1.24903 21.387 3.53653 24.0255L0.308818 27.2109C-0.345364 27.8566 0.107802 28.9783 1.03097 28.9828L8.82568 29.0199C11.5118 32.9285 15.9491 35.3314 20.8052 35.3314C20.8152 35.3314 34.2923 35.2624 34.3002 35.2624C35.2203 35.258 35.6786 34.1383 35.0223 33.4905L31.7946 30.3051ZM5.71114 23.3254C3.36374 20.9737 2.0709 17.8486 2.0709 14.5259C2.0709 7.6578 7.65823 2.0702 14.5259 2.0702C21.3936 2.0702 26.9809 7.6578 26.9809 14.5259C26.9809 21.1073 21.7728 27.0346 14.122 26.9749L3.54619 26.9245L5.70562 24.7934C6.114 24.3903 6.11641 23.7315 5.71114 23.3254ZM20.8052 33.2612C17.1731 33.2612 13.7971 31.7093 11.4503 29.0324C15.3909 29.0583 14.3448 29.0518 14.5259 29.0518C23.8695 29.0518 30.8464 20.2873 28.6508 11.1365C34.376 15.8133 34.8449 24.3705 29.62 29.605C29.2146 30.0111 29.2171 30.67 29.6255 31.073L31.7849 33.2041C31.7767 33.2041 20.8132 33.2612 20.8052 33.2612Z" fill="#4B3C8F"/>
<path d="M8.35022 11.455H20.7707C21.3424 11.455 21.8057 10.9915 21.8057 10.4199C21.8057 9.84821 21.3424 9.38477 20.7707 9.38477H8.35022C7.77856 9.38477 7.31519 9.84821 7.31519 10.4199C7.31519 10.9915 7.77863 11.455 8.35022 11.455Z" fill="#4B3C8F"/>
<path d="M8.35022 15.5951H20.7707C21.3424 15.5951 21.8057 15.1317 21.8057 14.56C21.8057 13.9884 21.3424 13.5249 20.7707 13.5249H8.35022C7.77856 13.5249 7.31519 13.9884 7.31519 14.56C7.31519 15.1317 7.77863 15.5951 8.35022 15.5951Z" fill="#4B3C8F"/>
<path d="M8.35022 19.7357H20.7707C21.3424 19.7357 21.8057 19.2723 21.8057 18.7006C21.8057 18.129 21.3424 17.6655 20.7707 17.6655H8.35022C7.77856 17.6655 7.31519 18.129 7.31519 18.7006C7.31519 19.2723 7.77863 19.7357 8.35022 19.7357Z" fill="#4B3C8F"/>
</svg>
