<svg width="29" height="30" viewBox="0 0 29 30" fill="none" xmlns="http://www.w3.org/2000/svg">
<path d="M26.9365 15.1293C26.8178 14.8865 26.8178 14.6081 26.9365 14.3653L28.0365 12.1149C28.649 10.8619 28.1637 9.3685 26.9318 8.71485L24.7191 7.54084C24.4804 7.41422 24.3167 7.18887 24.27 6.92279L23.8373 4.45558C23.5963 3.08191 22.3256 2.15883 20.945 2.35418L18.4649 2.705C18.1972 2.74278 17.9325 2.65672 17.7383 2.46887L15.9381 0.727325C14.9357 -0.242413 13.3653 -0.242471 12.363 0.727325L10.5627 2.46904C10.3684 2.65695 10.1037 2.74284 9.8361 2.70517L7.35599 2.35435C5.97489 2.15889 4.70468 3.08208 4.46371 4.45575L4.03098 6.92284C3.98426 7.18898 3.8206 7.41428 3.58194 7.54096L1.36929 8.71496C0.137333 9.36856 -0.34794 10.8621 0.264527 12.1151L1.36451 14.3654C1.48318 14.6082 1.48318 14.8867 1.36451 15.1294L0.264469 17.3798C-0.347997 18.6327 0.137275 20.1262 1.36924 20.7798L3.58188 21.9538C3.8206 22.0805 3.98426 22.3058 4.03098 22.5719L4.46371 25.0391C4.68308 26.2896 5.75535 27.1666 6.98772 27.1665C7.10909 27.1665 7.23225 27.158 7.35605 27.1405L9.83616 26.7896C10.1036 26.7517 10.3685 26.8379 10.5627 27.0258L12.363 28.7673C12.8643 29.2522 13.5073 29.4946 14.1505 29.4946C14.7936 29.4945 15.437 29.2521 15.938 28.7673L17.7383 27.0258C17.9326 26.8379 18.1973 26.7521 18.4649 26.7896L20.945 27.1405C22.3263 27.3359 23.5963 26.4127 23.8373 25.039L24.2701 22.572C24.3168 22.3058 24.4805 22.0805 24.7191 21.9538L26.9318 20.7798C28.1637 20.1262 28.649 18.6327 28.0365 17.3797L26.9365 15.1293ZM26.1344 19.2771L23.9218 20.4511C23.2163 20.8255 22.7325 21.4913 22.5945 22.2779L22.1618 24.7451C22.0803 25.2099 21.6506 25.522 21.1833 25.4561L18.7032 25.1052C17.9122 24.9932 17.1296 25.2478 16.5555 25.803L14.7552 27.5445C14.4162 27.8725 13.8849 27.8725 13.5457 27.5445L11.7455 25.803C11.2603 25.3336 10.6261 25.0793 9.96393 25.0793C9.84261 25.0793 9.72031 25.0878 9.59784 25.1052L7.11773 25.456C6.65078 25.522 6.22075 25.2098 6.13918 24.745L5.70639 22.2778C5.56836 21.4912 5.08459 20.8253 4.37909 20.451L2.16644 19.277C1.74961 19.0559 1.58543 18.5506 1.79264 18.1267L2.89268 15.8763C3.24339 15.1588 3.24339 14.3358 2.89268 13.6183L1.79264 11.3679C1.58543 10.944 1.74961 10.4387 2.16644 10.2176L4.37909 9.04355C5.08453 8.66917 5.56836 8.00336 5.70633 7.21669L6.13907 4.74955C6.22064 4.28478 6.65026 3.97256 7.11762 4.03857L9.59773 4.38939C10.3884 4.50132 11.1713 4.24688 11.7453 3.69161L13.5456 1.95007C13.8847 1.62206 14.416 1.62206 14.7552 1.95007L16.5554 3.69161C17.1295 4.24693 17.9123 4.50132 18.703 4.38939L21.1831 4.03857C21.6502 3.9725 22.0802 4.28478 22.1617 4.74955L22.5944 7.21675C22.7325 8.00342 23.2162 8.66928 23.9217 9.04355L26.1344 10.2176C26.5512 10.4387 26.7154 10.944 26.5082 11.3679L25.4081 13.6182C25.0574 14.3357 25.0574 15.1588 25.4081 15.8762L26.5082 18.1266C26.7155 18.5506 26.5513 19.0559 26.1344 19.2771Z" fill="#4B3D92"/>
<path d="M20.366 8.53256C20.0339 8.20041 19.4953 8.20041 19.1631 8.53256L7.93637 19.7594C7.60422 20.0915 7.60422 20.6301 7.93637 20.9623C8.10245 21.1283 8.32014 21.2114 8.53778 21.2114C8.75541 21.2114 8.97316 21.1284 9.13919 20.9623L20.366 9.73549C20.6982 9.40328 20.6982 8.86478 20.366 8.53256Z" fill="#4B3D92"/>
<path d="M10.7481 7.09229C9.02847 7.09229 7.62939 8.49136 7.62939 10.211C7.62939 11.9307 9.02847 13.3297 10.7481 13.3297C12.4678 13.3297 13.8669 11.9307 13.8669 10.211C13.8669 8.49136 12.4678 7.09229 10.7481 7.09229ZM10.7481 11.6286C9.96647 11.6286 9.33056 10.9927 9.33056 10.211C9.33056 9.4293 9.96647 8.79339 10.7481 8.79339C11.5298 8.79339 12.1657 9.4293 12.1657 10.211C12.1657 10.9927 11.5298 11.6286 10.7481 11.6286Z" fill="#4B3D92"/>
<path d="M17.5528 16.1648C15.8332 16.1648 14.4341 17.5639 14.4341 19.2835C14.4341 21.0032 15.8332 22.4023 17.5528 22.4023C19.2725 22.4023 20.6715 21.0032 20.6715 19.2835C20.6715 17.5639 19.2725 16.1648 17.5528 16.1648ZM17.5528 20.7011C16.7712 20.7011 16.1352 20.0652 16.1352 19.2835C16.1352 18.5019 16.7711 17.866 17.5528 17.866C18.3345 17.866 18.9704 18.5019 18.9704 19.2835C18.9704 20.0652 18.3345 20.7011 17.5528 20.7011Z" fill="#4B3D92"/>
</svg>
