<svg width="24" height="30" viewBox="0 0 24 30" fill="none" xmlns="http://www.w3.org/2000/svg">
<path d="M11.6275 0C5.2161 0 0 5.21604 0 11.6275C0 15.6233 2.02612 19.1544 5.10475 21.2484V28.6434C5.10475 28.9321 5.25113 29.2011 5.49359 29.3578C5.73594 29.5146 6.04137 29.5376 6.30468 29.4192L11.6275 27.024L16.9504 29.4193C17.0618 29.4694 17.1808 29.4942 17.2994 29.4942C17.4609 29.4942 17.6217 29.4483 17.7615 29.3579C18.0039 29.2011 18.1503 28.9321 18.1503 28.6435V21.2484C21.2289 19.1545 23.2551 15.6233 23.2551 11.6276C23.2551 5.21605 18.039 0 11.6275 0ZM16.4487 27.3277L11.9766 25.3153C11.8656 25.2653 11.7465 25.2403 11.6275 25.2403C11.5085 25.2403 11.3894 25.2652 11.2784 25.3152L6.80637 27.3276V22.2102C7.23398 22.4051 7.67288 22.5727 8.12008 22.714C8.14542 22.722 8.17071 22.7303 8.19617 22.7381C8.25326 22.7557 8.31052 22.7726 8.36784 22.7893C8.4103 22.8017 8.45275 22.814 8.49532 22.826C8.54158 22.8389 8.58801 22.8514 8.63444 22.8637C8.68859 22.8782 8.74285 22.8923 8.79729 22.906C8.83577 22.9156 8.87431 22.9251 8.91291 22.9342C8.97553 22.9493 9.03832 22.9638 9.10134 22.9778C9.134 22.9851 9.16672 22.9923 9.19944 22.9992C9.26845 23.014 9.33769 23.0279 9.40722 23.0415C9.43551 23.0469 9.46379 23.0525 9.49214 23.0578C9.56576 23.0715 9.63966 23.0844 9.71374 23.0967C9.73915 23.101 9.76455 23.1053 9.79002 23.1094C9.86646 23.1216 9.94325 23.1328 10.0203 23.1435C10.0441 23.1468 10.0679 23.1503 10.0918 23.1535C10.1697 23.1638 10.248 23.1731 10.3263 23.1818C10.3497 23.1844 10.373 23.1874 10.3964 23.1899C10.4745 23.1982 10.553 23.2053 10.6316 23.212C10.6555 23.214 10.6792 23.2165 10.7031 23.2183C10.7806 23.2244 10.8584 23.2293 10.9364 23.2339C10.9614 23.2354 10.9863 23.2374 11.0114 23.2387C11.0901 23.2428 11.1692 23.2457 11.2483 23.2482C11.2722 23.249 11.2958 23.2503 11.3197 23.2509C11.422 23.2536 11.5246 23.2551 11.6276 23.2551C11.7306 23.2551 11.8332 23.2536 11.9355 23.2509C11.9594 23.2503 11.9831 23.249 12.0069 23.2482C12.0861 23.2457 12.1651 23.2428 12.2439 23.2387C12.2689 23.2374 12.2938 23.2354 12.3189 23.2339C12.3968 23.2293 12.4746 23.2245 12.5521 23.2183C12.576 23.2165 12.5997 23.214 12.6236 23.212C12.7022 23.2053 12.7807 23.1981 12.8589 23.1899C12.8822 23.1874 12.9055 23.1845 12.9289 23.1818C13.0073 23.173 13.0855 23.1638 13.1635 23.1535C13.1874 23.1503 13.2111 23.1468 13.235 23.1435C13.3119 23.1328 13.3887 23.1216 13.4652 23.1094C13.4907 23.1053 13.516 23.1009 13.5415 23.0967C13.6156 23.0844 13.6895 23.0715 13.7631 23.0578C13.7914 23.0525 13.8197 23.047 13.848 23.0415C13.9175 23.028 13.9867 23.0139 14.0558 22.9992C14.0886 22.9923 14.1212 22.9851 14.1539 22.9778C14.2169 22.9638 14.2797 22.9493 14.3423 22.9342C14.3809 22.925 14.4194 22.9156 14.4579 22.906C14.5124 22.8924 14.5666 22.8783 14.6208 22.8637C14.6672 22.8514 14.7137 22.839 14.7599 22.826C14.8025 22.814 14.845 22.8017 14.8874 22.7893C14.9447 22.7726 15.002 22.7557 15.0591 22.7381C15.0845 22.7302 15.1098 22.722 15.1352 22.714C15.5824 22.5727 16.0213 22.4052 16.4489 22.2103V27.3277H16.4487ZM14.8667 21.0103C14.8327 21.022 14.7988 21.0337 14.7647 21.0451C14.713 21.0623 14.6611 21.0793 14.6089 21.0958C14.5483 21.1148 14.4874 21.1332 14.4264 21.1511C14.3834 21.1637 14.3403 21.1763 14.297 21.1884C14.2163 21.211 14.1353 21.2325 14.0541 21.253C14.0238 21.2606 13.9933 21.2679 13.963 21.2753C13.8834 21.2945 13.8035 21.3128 13.7235 21.3301C13.7033 21.3345 13.6833 21.3391 13.6632 21.3432C13.5598 21.3648 13.4561 21.3849 13.352 21.4032C13.3414 21.405 13.3308 21.4067 13.3201 21.4086C13.2263 21.4247 13.1323 21.4394 13.038 21.4529C13.0168 21.4559 12.9955 21.4589 12.9741 21.4618C12.8736 21.4755 12.7729 21.4881 12.6719 21.4987C12.6681 21.4991 12.6643 21.4996 12.6605 21.5C12.5547 21.511 12.4485 21.52 12.3422 21.5276C12.3192 21.5292 12.296 21.5305 12.2729 21.532C12.1903 21.5374 12.1076 21.5416 12.0247 21.5449C11.9966 21.5461 11.9684 21.5472 11.9402 21.5481C11.8361 21.5513 11.7319 21.5535 11.6275 21.5535C11.5231 21.5535 11.4189 21.5514 11.3148 21.548C11.2866 21.5472 11.2584 21.5459 11.2303 21.5448C11.1474 21.5415 11.0648 21.5372 10.9821 21.5319C10.959 21.5304 10.9359 21.5291 10.9128 21.5275C10.8065 21.5199 10.7004 21.5108 10.5946 21.4999C10.5908 21.4995 10.587 21.4989 10.5832 21.4985C10.4822 21.4879 10.3815 21.4754 10.2809 21.4617C10.2597 21.4588 10.2384 21.4559 10.2171 21.4527C10.1228 21.4393 10.0287 21.4246 9.93495 21.4084C9.92435 21.4067 9.9137 21.405 9.90304 21.4031C9.79894 21.3848 9.6952 21.3647 9.59191 21.3431C9.5718 21.3389 9.55176 21.3342 9.5316 21.33C9.45152 21.3128 9.37162 21.2944 9.29207 21.2751C9.26165 21.2678 9.23124 21.2605 9.20099 21.2528C9.11971 21.2325 9.03872 21.2108 8.95801 21.1883C8.91475 21.1762 8.87166 21.1636 8.82863 21.1509C8.76768 21.133 8.70679 21.1147 8.64608 21.0956C8.59394 21.0792 8.54204 21.0622 8.49025 21.0449C8.45615 21.0336 8.42222 21.0218 8.38835 21.0102C4.50087 19.6644 1.70156 15.9669 1.70156 11.6275C1.70156 6.15439 6.15433 1.70156 11.6275 1.70156C17.1007 1.70156 21.5535 6.15433 21.5535 11.6275C21.5535 15.9669 18.7541 19.6644 14.8667 21.0103Z" fill="#4B3D92"/>
<path d="M16.6754 11.6276L18.2734 8.62398C18.4113 8.36493 18.4059 8.05311 18.2591 7.79901C18.1124 7.54491 17.8451 7.38424 17.5518 7.37411L14.1516 7.2563L12.3495 4.37059C12.194 4.12173 11.9213 3.97046 11.6278 3.97046C11.3344 3.97046 11.0617 4.12173 10.9062 4.37059L9.10411 7.2563L5.70392 7.37411C5.41065 7.38424 5.1433 7.54491 4.99658 7.79901C4.84985 8.05311 4.84438 8.36493 4.98229 8.62398L6.58034 11.6276L4.98229 14.6311C4.84438 14.8902 4.84985 15.202 4.99658 15.4561C5.1433 15.7102 5.41065 15.8709 5.70392 15.881L9.10411 15.9988L10.9062 18.8845C11.0616 19.1334 11.3344 19.2847 11.6278 19.2847C11.9213 19.2847 12.194 19.1334 12.3495 18.8845L14.1515 15.9988L17.5517 15.881C17.845 15.8709 18.1124 15.7102 18.2591 15.4561C18.4058 15.202 18.4113 14.8902 18.2734 14.6311L16.6754 11.6276ZM13.6403 14.3139C13.3575 14.3237 13.098 14.4735 12.9482 14.7136L11.6278 16.8278L10.3076 14.7136C10.1577 14.4736 9.89821 14.3238 9.61542 14.314L7.12443 14.2276L8.29515 12.0272C8.42811 11.7773 8.42811 11.4778 8.29515 11.2279L7.12443 9.02751L9.61542 8.94116C9.89821 8.93137 10.1577 8.78153 10.3076 8.54149L11.6278 6.42741L12.9481 8.54155C13.098 8.78159 13.3574 8.93137 13.6402 8.94122L16.1312 9.02757L14.9605 11.228C14.8276 11.4778 14.8276 11.7774 14.9606 12.0272L16.1313 14.2277L13.6403 14.3139Z" fill="#4B3D92"/>
</svg>
