<svg width="30" height="25" viewBox="0 0 30 25" fill="none" xmlns="http://www.w3.org/2000/svg">
<path d="M25.3876 0H4.2788C1.91945 0 0 1.91945 0 4.2788V20.253C0 22.6123 1.91945 24.5318 4.2788 24.5318H25.3876C27.7469 24.5318 29.6664 22.6123 29.6664 20.253V4.2788C29.6664 1.91945 27.7469 0 25.3876 0ZM27.9549 14.8332H21.6793C20.2637 14.8332 19.112 13.6815 19.112 12.2659C19.112 10.8503 20.2637 9.69859 21.6793 9.69859H27.9549V14.8332ZM27.9549 7.9871H21.6793C19.32 7.9871 17.4005 9.90655 17.4005 12.2659C17.4005 14.6252 19.32 16.5447 21.6793 16.5447H27.9549V20.253C27.9549 21.6686 26.8032 22.8203 25.3876 22.8203H4.2788C2.86321 22.8203 1.7115 21.6686 1.7115 20.253V4.2788C1.7115 2.86321 2.86316 1.7115 4.2788 1.7115H25.3876C26.8032 1.7115 27.9549 2.86316 27.9549 4.2788V7.9871Z" fill="#4B3D92"/>
<path d="M22.8215 11.4104H21.6805C21.2078 11.4104 20.8247 11.7936 20.8247 12.2661C20.8247 12.7388 21.2079 13.1219 21.6805 13.1219H22.8215C23.2941 13.1219 23.6772 12.7387 23.6772 12.2661C23.6772 11.7935 23.2941 11.4104 22.8215 11.4104Z" fill="#4B3D92"/>
</svg>
