<svg width="30" height="30" viewBox="0 0 30 30" fill="none" xmlns="http://www.w3.org/2000/svg">
<path d="M28.5263 5.3566C28.3755 5.20576 28.2129 5.0711 28.0396 4.95333C28.1055 4.03364 27.7634 3.10888 27.0744 2.4199C26.3854 1.73091 25.4607 1.38883 24.5409 1.45469C24.4232 1.28138 24.2885 1.11878 24.1377 0.967937C23.0187 -0.150878 21.2685 -0.319064 20.038 0.564154C19.7507 0.74634 19.6685 1.0558 19.6332 1.18861C19.6127 1.26611 18.8872 4.23145 18.6294 5.30457C17.872 5.07975 17.0779 4.96301 16.2657 4.96301C14.0579 4.96301 11.9822 5.82278 10.4211 7.38398L7.38401 10.4211C5.82287 11.9822 4.96304 14.0579 4.9631 16.2656C4.9631 17.0778 5.07983 17.872 5.30466 18.6293C4.23159 18.8871 1.26619 19.6126 1.1887 19.6332C1.05583 19.6685 0.746313 19.7507 0.564127 20.038C-0.319091 21.2685 -0.150848 23.0186 0.968025 24.1376C1.11887 24.2884 1.28146 24.4231 1.45478 24.5408C1.38886 25.4605 1.73099 26.3853 2.41998 27.0743C3.10897 27.7633 4.03379 28.1054 4.95342 28.0395C5.07119 28.2128 5.20584 28.3754 5.35669 28.5262C5.99578 29.1653 6.8408 29.4942 7.67734 29.4942C8.30537 29.4942 8.92868 29.3088 9.45634 28.93C9.74356 28.7478 9.82578 28.4384 9.86104 28.3056C9.88161 28.2281 10.6072 25.2627 10.8649 24.1896C11.6223 24.4144 12.4164 24.5312 13.2286 24.5312C15.4364 24.5312 17.5121 23.6714 19.0732 22.1102L22.1103 19.0731C23.6714 17.512 24.5312 15.4363 24.5312 13.2285C24.5312 12.4163 24.4145 11.6222 24.1896 10.8648C25.2627 10.6071 28.2281 9.88158 28.3056 9.86096C28.4385 9.82569 28.7479 9.74347 28.93 9.45625C29.8134 8.22577 29.6452 6.47547 28.5263 5.3566ZM13.3563 7.37125C14.212 6.94523 15.1572 6.71176 16.1381 6.69309V22.1229C15.2824 22.5489 14.3372 22.7825 13.3563 22.8011V7.37125ZM8.60625 11.6432L11.6278 8.62172V22.6063C10.494 22.3222 9.45415 21.7359 8.60625 20.888C7.37157 19.6533 6.69162 18.0117 6.69162 16.2656C6.69162 14.5195 7.37162 12.8779 8.60625 11.6432ZM8.24706 27.6439C7.7175 27.8922 7.04067 27.7657 6.57898 27.304C6.42146 27.1465 6.30086 26.9633 6.22054 26.7596L5.92433 26.0084L5.15474 26.2529C4.64234 26.4159 4.04877 26.2584 3.64234 25.852C3.2359 25.4455 3.07849 24.8519 3.24138 24.3396L3.48596 23.57L2.73475 23.2738C2.53101 23.1934 2.34785 23.0729 2.19038 22.9153C1.72863 22.4536 1.60222 21.7768 1.85038 21.2473C2.49529 21.0843 4.10316 20.6953 5.98028 20.2447C6.35283 20.9211 6.82288 21.549 7.38407 22.1102C7.94526 22.6714 8.57324 23.1414 9.24961 23.514C8.79904 25.3912 8.41006 26.999 8.24706 27.6439ZM20.8882 17.8509L17.8666 20.8725V6.8879C19.0004 7.17201 20.0403 7.75827 20.8882 8.60616C22.1228 9.84085 22.8028 11.4824 22.8028 13.2285C22.8028 14.9747 22.1228 16.6163 20.8882 17.8509ZM27.644 8.24698C26.9991 8.40998 25.3914 8.79889 23.5141 9.24952C23.1416 8.57309 22.6715 7.94512 22.1103 7.38392C21.5491 6.82273 20.9212 6.35275 20.2448 5.98013C20.6954 4.10302 21.0843 2.49514 21.2474 1.85023C21.7769 1.60207 22.4537 1.72849 22.9155 2.19018C23.073 2.3477 23.1936 2.53087 23.2739 2.7346L23.5701 3.48582L24.3397 3.24123C24.8521 3.07841 25.4457 3.23576 25.8521 3.64219C26.2586 4.04862 26.416 4.64226 26.2531 5.15459L26.0085 5.92419L26.7597 6.2204C26.9635 6.30077 27.1466 6.42131 27.3041 6.57884C27.7658 7.04058 27.8922 7.71736 27.644 8.24698Z" fill="#4B3D92"/>
</svg>
