<svg width="9" height="13" viewBox="0 0 9 13" fill="none" xmlns="http://www.w3.org/2000/svg">
<path d="M8.31824 2.22618C7.52928 0.864638 6.12792 0.0328173 4.56958 0.00102832C4.50305 -0.000342773 4.4361 -0.000342773 4.36955 0.00102832C2.81123 0.0328173 1.40987 0.864638 0.620886 2.22618C-0.185569 3.61789 -0.207634 5.2896 0.561853 6.69804L3.78552 12.5985C3.78696 12.6011 3.78841 12.6037 3.78991 12.6063C3.93174 12.8528 4.18582 13 4.46961 13C4.75338 13 5.00746 12.8528 5.14927 12.6063C5.15077 12.6037 5.15221 12.6011 5.15366 12.5985L8.37733 6.69804C9.14676 5.2896 9.1247 3.61789 8.31824 2.22618ZM4.46956 5.89062C3.46153 5.89062 2.64144 5.07053 2.64144 4.0625C2.64144 3.05447 3.46153 2.23438 4.46956 2.23438C5.47759 2.23438 6.29769 3.05447 6.29769 4.0625C6.29769 5.07053 5.47762 5.89062 4.46956 5.89062Z" fill="white"/>
</svg>
