<svg width="13" height="17" viewBox="0 0 13 17" fill="none" xmlns="http://www.w3.org/2000/svg">
<path d="M12.2046 5.6633C12.6568 5.05558 12.9059 4.30371 12.9059 3.54619C12.9059 1.59081 11.3151 0 9.35972 0H3.54622C1.59081 0 0 1.59081 0 3.54619C0 4.30371 0.249068 5.05558 0.701323 5.6633L1.82407 7.17198C0.782669 8.32003 0.214032 9.78953 0.214032 11.3552C0.214032 12.4708 0.512171 13.5658 1.07624 14.5216C1.62351 15.449 2.40566 16.2237 3.33817 16.762L3.45255 16.828H9.45326L9.56764 16.762C10.5002 16.2237 11.2823 15.449 11.8296 14.5216C12.3937 13.5658 12.6918 12.4708 12.6918 11.3552C12.6918 9.78953 12.1231 8.32003 11.0818 7.17198L12.2046 5.6633ZM3.54622 3.12239H9.35975L9.69973 3.79923L8.21062 5.88358C7.6566 5.70576 7.06611 5.60936 6.453 5.60936C5.8399 5.60936 5.24943 5.70576 4.69539 5.88358L3.20624 3.7992L3.54622 3.12239Z" fill="white"/>
</svg>
