<svg width="32" height="32" viewBox="0 0 32 32" fill="none" xmlns="http://www.w3.org/2000/svg">
<path d="M16 0C7.16479 0 0 7.16479 0 16C0 24.8352 7.16479 32 16 32C24.8352 32 32 24.8352 32 16C32 7.16479 24.8352 0 16 0ZM16.3391 25.3157C16.3389 25.3157 16.3394 25.3157 16.3391 25.3157H16.3352C14.7324 25.3149 13.1575 24.9131 11.7588 24.1504L6.68237 25.4817L8.04102 20.5208C7.20288 19.0691 6.76196 17.4221 6.7627 15.7349C6.76489 10.4565 11.0608 6.16235 16.3391 6.16235C18.9006 6.16333 21.3052 7.1604 23.113 8.96973C24.9211 10.7793 25.9163 13.1846 25.9153 15.7424C25.9131 21.021 21.6167 25.3157 16.3391 25.3157Z" fill="#A898DF"/>
<path d="M16.3423 7.7793C11.9519 7.7793 8.38135 11.3484 8.37939 15.7356C8.37891 17.239 8.79981 18.7031 9.59644 19.97L9.78565 20.271L8.98145 23.2073L11.9939 22.4172L12.2847 22.5896C13.5066 23.3147 14.9075 23.6982 16.3357 23.6987H16.3389C20.7258 23.6987 24.2964 20.1294 24.2983 15.7419C24.2991 13.6157 23.4719 11.6167 21.9692 10.1128C20.4666 8.60889 18.468 7.78003 16.3423 7.7793ZM21.0239 19.1565C20.8245 19.7151 19.8687 20.2251 19.4089 20.2939C18.9966 20.3555 18.4751 20.3811 17.9019 20.1992C17.5542 20.0889 17.1086 19.9417 16.5376 19.6953C14.1375 18.6592 12.5698 16.2432 12.4502 16.0835C12.3306 15.9238 11.4731 14.7864 11.4731 13.6089C11.4731 12.4316 12.0913 11.8528 12.3105 11.6135C12.53 11.374 12.7893 11.3142 12.9487 11.3142C13.1082 11.3142 13.2678 11.3157 13.4072 11.3225C13.5542 11.3298 13.7515 11.2666 13.9456 11.7332C14.145 12.2122 14.6235 13.3894 14.6834 13.509C14.7432 13.6289 14.783 13.7686 14.7034 13.9282C14.6235 14.0879 14.3584 14.4324 14.1052 14.7463C13.999 14.8779 13.8606 14.9951 14.0002 15.2346C14.1397 15.4739 14.6201 16.2573 15.3313 16.8916C16.2454 17.7065 17.0164 17.959 17.2556 18.0789C17.4946 18.1985 17.6343 18.1785 17.7739 18.019C17.9133 17.8594 18.3721 17.3206 18.5315 17.0811C18.6909 16.8416 18.8506 16.8816 19.0698 16.9614C19.2893 17.041 20.4656 17.6199 20.7048 17.7395C20.9441 17.8594 21.1035 17.9192 21.1633 18.019C21.2234 18.1189 21.2234 18.5977 21.0239 19.1565Z" fill="#A898DF"/>
</svg>
