<svg width="58" height="58" viewBox="0 0 58 58" fill="none" xmlns="http://www.w3.org/2000/svg">
<g filter="url(#filter0_d)">
<circle cx="29" cy="27" r="25" fill="#4D3E93"/>
<path d="M14.2812 19.4688L16.4727 25.6562L18.6523 19.4688H20.9609V28H19.1973V25.668L19.373 21.6426L17.0703 28H15.8633L13.5664 21.6484L13.7422 25.668V28H11.9844V19.4688H14.2812ZM27.418 26.2422H24.3359L23.75 28H21.8809L25.0566 19.4688H26.6855L29.8789 28H28.0098L27.418 26.2422ZM24.8105 24.8184H26.9434L25.8711 21.625L24.8105 24.8184ZM37.7188 19.4688V28H35.9551V20.8926H33.6816L33.541 23.9043C33.4824 24.9199 33.3535 25.7207 33.1543 26.3066C32.9551 26.8887 32.6641 27.3164 32.2812 27.5898C31.8984 27.8594 31.375 27.9961 30.7109 28H30.2539V26.5879L30.5469 26.5586C30.9883 26.5 31.3027 26.2461 31.4902 25.7969C31.6816 25.3438 31.8027 24.5391 31.8535 23.3828L32 19.4688H37.7188ZM46.2617 23.9277C46.2617 24.7676 46.1133 25.5039 45.8164 26.1367C45.5195 26.7695 45.0938 27.2578 44.5391 27.6016C43.9883 27.9453 43.3555 28.1172 42.6406 28.1172C41.9336 28.1172 41.3027 27.9473 40.748 27.6074C40.1934 27.2676 39.7637 26.7832 39.459 26.1543C39.1543 25.5215 39 24.7949 38.9961 23.9746V23.5527C38.9961 22.7129 39.1465 21.9746 39.4473 21.3379C39.752 20.6973 40.1797 20.207 40.7305 19.8672C41.2852 19.5234 41.918 19.3516 42.6289 19.3516C43.3398 19.3516 43.9707 19.5234 44.5215 19.8672C45.0762 20.207 45.5039 20.6973 45.8047 21.3379C46.1094 21.9746 46.2617 22.7109 46.2617 23.5469V23.9277ZM44.4805 23.541C44.4805 22.6465 44.3203 21.9668 44 21.502C43.6797 21.0371 43.2227 20.8047 42.6289 20.8047C42.0391 20.8047 41.584 21.0352 41.2637 21.4961C40.9434 21.9531 40.7812 22.625 40.7773 23.5117V23.9277C40.7773 24.7988 40.9375 25.4746 41.2578 25.9551C41.5781 26.4355 42.0391 26.6758 42.6406 26.6758C43.2305 26.6758 43.6836 26.4453 44 25.9844C44.3164 25.5195 44.4766 24.8438 44.4805 23.957V23.541ZM15.9131 36H15.0342V34.1719H13.3203V36H12.4414V31.7344H13.3203V33.4629H15.0342V31.7344H15.9131V36ZM19.1445 35.1211H17.6035L17.3105 36H16.376L17.9639 31.7344H18.7783L20.375 36H19.4404L19.1445 35.1211ZM17.8408 34.4092H18.9072L18.3711 32.8125L17.8408 34.4092ZM25.6162 34.5791C25.583 35.0381 25.4131 35.3994 25.1064 35.6631C24.8018 35.9268 24.3994 36.0586 23.8994 36.0586C23.3525 36.0586 22.9219 35.875 22.6074 35.5078C22.2949 35.1387 22.1387 34.6328 22.1387 33.9902V33.7295C22.1387 33.3193 22.2109 32.958 22.3555 32.6455C22.5 32.333 22.7061 32.0938 22.9736 31.9277C23.2432 31.7598 23.5557 31.6758 23.9111 31.6758C24.4033 31.6758 24.7998 31.8076 25.1006 32.0713C25.4014 32.335 25.5752 32.7051 25.6221 33.1816H24.7432C24.7217 32.9062 24.6445 32.707 24.5117 32.584C24.3809 32.459 24.1807 32.3965 23.9111 32.3965C23.6182 32.3965 23.3984 32.502 23.252 32.7129C23.1074 32.9219 23.0332 33.2471 23.0293 33.6885V34.0107C23.0293 34.4717 23.0986 34.8086 23.2373 35.0215C23.3779 35.2344 23.5986 35.3408 23.8994 35.3408C24.1709 35.3408 24.373 35.2793 24.5059 35.1562C24.6406 35.0312 24.7178 34.8389 24.7373 34.5791H25.6162ZM27.585 34.2568H27.0781V36H26.1992V31.7344H27.0781V33.4424H27.4795L28.5225 31.7344H29.5947L28.2793 33.7529L29.7324 36H28.6836L27.585 34.2568ZM33.541 31.7344V36H32.6592V32.4463H31.5225L31.4521 33.9521C31.4229 34.46 31.3584 34.8604 31.2588 35.1533C31.1592 35.4443 31.0137 35.6582 30.8223 35.7949C30.6309 35.9297 30.3691 35.998 30.0371 36H29.8086V35.2939L29.9551 35.2793C30.1758 35.25 30.333 35.123 30.4268 34.8984C30.5225 34.6719 30.583 34.2695 30.6084 33.6914L30.6816 31.7344H33.541ZM36.7695 35.1211H35.2285L34.9355 36H34.001L35.5889 31.7344H36.4033L38 36H37.0654L36.7695 35.1211ZM35.4658 34.4092H36.5322L35.9961 32.8125L35.4658 34.4092ZM42.4121 37.0488H41.6006V36H39.0283V37.0459H38.1963L38.1494 35.2939H38.4717C38.6455 35.1494 38.7793 34.9375 38.873 34.6582C38.9688 34.377 39.0332 34.0293 39.0664 33.6152L39.1895 31.7344H41.9844V35.2939H42.4824L42.4121 37.0488ZM39.4795 35.2939H41.1055V32.4463H40.0244L39.9512 33.5684C39.8926 34.3203 39.7354 34.8955 39.4795 35.2939ZM45.5117 34.1514H43.8242V35.2939H45.8047V36H42.9453V31.7344H45.7988V32.4463H43.8242V33.4629H45.5117V34.1514Z" fill="white"/>
</g>
<defs>
<filter id="filter0_d" x="0" y="0" width="58" height="58" filterUnits="userSpaceOnUse" color-interpolation-filters="sRGB">
<feFlood flood-opacity="0" result="BackgroundImageFix"/>
<feColorMatrix in="SourceAlpha" type="matrix" values="0 0 0 0 0 0 0 0 0 0 0 0 0 0 0 0 0 0 127 0" result="hardAlpha"/>
<feOffset dy="2"/>
<feGaussianBlur stdDeviation="2"/>
<feComposite in2="hardAlpha" operator="out"/>
<feColorMatrix type="matrix" values="0 0 0 0 0 0 0 0 0 0 0 0 0 0 0 0 0 0 0.15 0"/>
<feBlend mode="normal" in2="BackgroundImageFix" result="effect1_dropShadow"/>
<feBlend mode="normal" in="SourceGraphic" in2="effect1_dropShadow" result="shape"/>
</filter>
</defs>
</svg>
