<svg width="58" height="58" viewBox="0 0 58 58" fill="none" xmlns="http://www.w3.org/2000/svg">
<g filter="url(#filter0_d)">
<circle cx="29" cy="27" r="25" fill="#DE2C27"/>
<path d="M19.2969 28.0293H15.998V26.6641H19.2969V28.0293ZM26.4336 31H20.5859V29.8398L23.3457 26.8984C23.7246 26.4844 24.0039 26.123 24.1836 25.8145C24.3672 25.5059 24.459 25.2129 24.459 24.9355C24.459 24.5566 24.3633 24.2598 24.1719 24.0449C23.9805 23.8262 23.707 23.7168 23.3516 23.7168C22.9688 23.7168 22.666 23.8496 22.4434 24.1152C22.2246 24.377 22.1152 24.7227 22.1152 25.1523H20.416C20.416 24.6328 20.5391 24.1582 20.7852 23.7285C21.0352 23.2988 21.3867 22.9629 21.8398 22.7207C22.293 22.4746 22.8066 22.3516 23.3809 22.3516C24.2598 22.3516 24.9414 22.5625 25.4258 22.9844C25.9141 23.4062 26.1582 24.002 26.1582 24.7715C26.1582 25.1934 26.0488 25.623 25.8301 26.0605C25.6113 26.498 25.2363 27.0078 24.7051 27.5898L22.7656 29.6348H26.4336V31ZM27.7285 26.8047L28.2207 22.4688H33.002V23.8809H29.6094L29.3984 25.7148C29.8008 25.5 30.2285 25.3926 30.6816 25.3926C31.4941 25.3926 32.1309 25.6445 32.5918 26.1484C33.0527 26.6523 33.2832 27.3574 33.2832 28.2637C33.2832 28.8145 33.166 29.3086 32.9316 29.7461C32.7012 30.1797 32.3691 30.5176 31.9355 30.7598C31.502 30.998 30.9902 31.1172 30.4004 31.1172C29.8848 31.1172 29.4062 31.0137 28.9648 30.8066C28.5234 30.5957 28.1738 30.3008 27.916 29.9219C27.6621 29.543 27.5273 29.1113 27.5117 28.627H29.1875C29.2227 28.9824 29.3457 29.2598 29.5566 29.459C29.7715 29.6543 30.0508 29.752 30.3945 29.752C30.7773 29.752 31.0723 29.6152 31.2793 29.3418C31.4863 29.0645 31.5898 28.6738 31.5898 28.1699C31.5898 27.6855 31.4707 27.3145 31.2324 27.0566C30.9941 26.7988 30.6562 26.6699 30.2188 26.6699C29.8164 26.6699 29.4902 26.7754 29.2402 26.9863L29.0762 27.1387L27.7285 26.8047ZM34.3438 24.1094C34.3438 23.5859 34.5137 23.1621 34.8535 22.8379C35.1934 22.5098 35.6387 22.3457 36.1895 22.3457C36.748 22.3457 37.1973 22.5078 37.5371 22.832C37.877 23.1523 38.0469 23.5879 38.0469 24.1387V24.5605C38.0469 25.0879 37.877 25.5117 37.5371 25.832C37.1973 26.1523 36.752 26.3125 36.2012 26.3125C35.6465 26.3125 35.1973 26.1523 34.8535 25.832C34.5137 25.5078 34.3438 25.0723 34.3438 24.5254V24.1094ZM35.4688 24.5605C35.4688 24.7949 35.5352 24.9844 35.668 25.1289C35.8047 25.2695 35.9824 25.3398 36.2012 25.3398C36.4199 25.3398 36.5938 25.2676 36.7227 25.123C36.8516 24.9785 36.916 24.7852 36.916 24.543V24.1094C36.916 23.875 36.8516 23.6855 36.7227 23.541C36.5938 23.3965 36.416 23.3242 36.1895 23.3242C35.9746 23.3242 35.8008 23.3965 35.668 23.541C35.5352 23.6816 35.4688 23.8789 35.4688 24.1328V24.5605ZM38.4219 28.9082C38.4219 28.3809 38.5938 27.957 38.9375 27.6367C39.2812 27.3125 39.7266 27.1504 40.2734 27.1504C40.8281 27.1504 41.2754 27.3105 41.6152 27.6309C41.959 27.9473 42.1309 28.3848 42.1309 28.9434V29.3652C42.1309 29.8887 41.9629 30.3125 41.627 30.6367C41.291 30.957 40.8438 31.1172 40.2852 31.1172C39.7227 31.1172 39.2715 30.9551 38.9316 30.6309C38.5918 30.3066 38.4219 29.877 38.4219 29.3418V28.9082ZM39.5469 29.3652C39.5469 29.5801 39.6172 29.7637 39.7578 29.916C39.8984 30.0684 40.0742 30.1445 40.2852 30.1445C40.7617 30.1445 41 29.8809 41 29.3535V28.9082C41 28.6738 40.9336 28.4863 40.8008 28.3457C40.668 28.2012 40.4922 28.1289 40.2734 28.1289C40.0547 28.1289 39.8789 28.2012 39.7461 28.3457C39.6133 28.4863 39.5469 28.6797 39.5469 28.9258V29.3652ZM36.5352 30.3613L35.709 29.916L39.875 23.248L40.7012 23.6934L36.5352 30.3613Z" fill="white"/>
</g>
<defs>
<filter id="filter0_d" x="0" y="0" width="58" height="58" filterUnits="userSpaceOnUse" color-interpolation-filters="sRGB">
<feFlood flood-opacity="0" result="BackgroundImageFix"/>
<feColorMatrix in="SourceAlpha" type="matrix" values="0 0 0 0 0 0 0 0 0 0 0 0 0 0 0 0 0 0 127 0" result="hardAlpha"/>
<feOffset dy="2"/>
<feGaussianBlur stdDeviation="2"/>
<feComposite in2="hardAlpha" operator="out"/>
<feColorMatrix type="matrix" values="0 0 0 0 0 0 0 0 0 0 0 0 0 0 0 0 0 0 0.15 0"/>
<feBlend mode="normal" in2="BackgroundImageFix" result="effect1_dropShadow"/>
<feBlend mode="normal" in="SourceGraphic" in2="effect1_dropShadow" result="shape"/>
</filter>
</defs>
</svg>
